<svg version="1.2" xmlns="http://www.w3.org/2000/svg" viewBox="0 0 1493 659" width="1493" height="659"><style>.a{fill:#fff}</style><path fill-rule="evenodd" class="a" d="m709 1.7c-1.9 0.2-9.2 1-16.3 1.8-7 0.8-19.3 2.8-27.4 4.4-8.2 1.6-19.1 4.1-24.3 5.6-5.2 1.5-14.2 4.3-20 6.2-5.8 1.9-15.7 5.7-22 8.5-6.3 2.7-16.5 7.5-22.5 10.7-6 3.2-15.5 8.7-21 12.1-5.5 3.4-14.3 9.4-19.5 13.3-5.2 3.9-12.4 9.6-16 12.6-3.6 3.1-11.8 10.5-18.4 16.6-6.5 6-16.2 16-21.6 22-5.3 6-13.3 15.7-17.7 21.5-4.4 5.8-12.5 17.3-18 25.5-5.6 8.3-10.4 15.8-10.7 16.8-0.3 0.9-1.6 1.7-2.9 1.7-1.2 0-7.4-0.9-13.7-2-6.3-1-19.4-3.1-29-4.5-9.6-1.4-27.4-4.6-39.5-7-14.6-2.9-28.7-6.6-42-10.8-11-3.6-29.7-9.3-41.5-12.7-11.8-3.5-29.8-8.7-40-11.7-10.2-3-27.9-8.2-39.5-11.4-11.6-3.3-31.1-9.2-43.5-13-12.4-3.9-29.5-9.5-38-12.6-8.5-3-20.9-8.1-27.5-11.2-6.6-3.2-15.2-7.9-19-10.6-3.9-2.6-9.1-6.5-11.8-8.7-2.6-2.1-5.2-3.6-5.7-3.3-0.5 0.3-1 3.8-1 7.7 0 4 0.7 9.8 1.6 12.8 0.9 3 2.5 7.2 3.5 9.2 1 2.1 1.8 4 1.6 4.3-0.1 0.3-4.5-0.2-9.7-1-5.2-0.9-15.2-2.8-22.2-4.3-7-1.5-13-2.5-13.3-2.2-0.3 0.3-0.1 5.1 0.4 10.7 0.6 5.7 1.1 13.8 1.1 18 0 5.2 0.7 10.5 2.3 15.8 1.3 4.7 4.2 11.1 6.9 15.5 2.6 4.1 8 10.7 12 14.5 4 3.9 8.8 8.2 10.6 9.5l3.2 2.5c1.5 24.8 2.4 33.8 3.1 36 0.6 2.2 2.7 7.1 4.7 11 2.1 3.8 6.4 9.8 9.7 13.3 3.3 3.6 9.2 8.5 13 11.1 3.8 2.5 10.9 6.4 15.6 8.6l8.6 4c-0.1 8.5 0.8 11.8 2.8 16 1.6 3.3 5.5 8.8 8.9 12.3 3.4 3.5 9 8.3 12.6 10.7 3.6 2.5 11 6.2 16.5 8.4 5.5 2.2 13.6 4.6 18 5.2 7.9 1.2 8.1 1.3 13 6.7 3.6 3.9 7.3 6.5 13 9.3 4.4 2.1 10.7 4.6 14 5.4 3.3 0.8 9.8 2 14.5 2.6 4.7 0.5 13.2 1 19 0.9l10.5-0.1c6.2 6 9.3 8.7 11 9.9 1.7 1.1 6.4 3.2 10.5 4.7 4.1 1.4 11.3 3.2 16 4 5.3 1 15 1.5 25.8 1.5 17.1 0 17.2 0 20.4 2.6 1.8 1.5 6.8 4.4 11 6.5 4.3 2.2 10.6 4.6 14 5.4 3.5 0.8 7.8 1.5 9.5 1.5 2.5 0 3.8 0.7 5.2 2.7 1 1.6 3.6 4 5.7 5.5 2.2 1.6 7.4 3.9 11.6 5.3 4.3 1.4 9.8 2.5 12.3 2.5 2.5 0 4.5 0.4 4.5 1 0 0.6 2.8 4 6.2 7.6 3.5 3.6 8.4 7.7 11 9 3.7 1.9 5.3 3.4 7 7.1 1.5 3 5.8 8 12.4 14.2 9.1 8.6 10.2 10.1 11.3 14.6 0.7 3.2 2.5 6.6 4.9 9.4 2 2.4 5.9 5.7 8.7 7.2 2.7 1.6 5.7 2.9 6.5 2.9 1.1 0 1.7 1.6 2.2 5.7 0.5 3.2 1.8 8 3.1 10.8 1.3 2.7 4.4 7 6.8 9.3 2.4 2.4 7.5 5.9 11.4 7.8 3.9 1.9 8.6 3.8 10.5 4.1 2.2 0.4 4.6 2 6.6 4.2 1.7 2 6 5.1 9.5 6.9 4.7 2.4 8.8 3.5 15.4 4.4 8.7 1.1 9.3 1.4 19 7.9 5.5 3.8 15.2 11 21.6 16.1 6.5 5.1 16.2 13.2 21.8 18l10.1 8.8c-6.5 5.8-10.9 9.3-14 11.6-3 2.2-6.9 5.8-8.6 8-1.7 2.1-3.9 5.4-4.8 7.1-0.9 1.8-1.6 4.1-1.6 5 0 1 1.3 3.8 2.8 6.3 1.6 2.5 5.3 6.8 8.3 9.6 3 2.8 7.4 6.1 9.9 7.4 2.5 1.2 6.5 4 9 6.2 2.5 2.1 5.1 3.9 5.7 3.8 0.7 0 3.7 1.9 6.5 4.3 2.9 2.4 6.8 5.1 8.5 6 1.8 0.9 5.7 2.2 8.5 2.8 3.9 0.8 6.4 2.1 9.3 4.9 2.2 2.1 5.9 4.7 8.2 5.9 2.4 1.2 6.1 2.1 8.3 2.1 2.2 0 5.7-0.7 7.7-1.6 2.1-0.8 5.3-2.6 7-4l3.3-2.4c0 5 0.2 7.5 0.5 8.7l0.5 2.3h145c-0.4-9.3-0.3-12 0-12 0.3-0.1 1.4 0.9 2.5 2.1 1.1 1.2 4.2 3.2 7 4.5 2.7 1.3 6.7 2.4 8.7 2.4 2.1 0 5.5-0.7 7.5-1.5 2.1-0.9 5.6-3.3 7.8-5.4 3.2-3.1 5.1-4 9-4.5 2.7-0.4 7.2-1.8 10-3.1 2.7-1.2 6.2-3.7 7.7-5.4 1.6-1.7 3.3-3.1 3.8-3.1 0.5 0 2.7-0.9 4.7-1.9 2.1-1 4.9-3.1 6.3-4.6 1.4-1.5 4.3-3.5 6.5-4.5 2.2-0.9 6.8-4.1 10.2-7.1 3.5-3 7.9-7.7 9.8-10.4 2-2.8 3.5-6.2 3.5-7.8 0-1.5-0.8-3.9-1.7-5.5-1-1.5-3.2-4.5-4.9-6.7-1.8-2.2-6.7-6.7-10.9-10-4.3-3.3-8.7-6.8-9.9-7.7-2.1-1.6-2.1-1.7 3.9-7.1 3.3-3 8.9-7.8 12.5-10.8 3.6-3 11.4-9.3 17.4-13.9 6-4.7 14.8-11.1 19.5-14.2 6.9-4.7 9.4-5.8 12.6-5.8 2.2 0 6.6-0.7 9.7-1.5 3.2-0.8 7.9-2.6 10.5-3.9 2.7-1.3 6.4-4.1 8.3-6.3 2.4-2.7 4.6-4.2 7-4.6 1.9-0.4 6.9-2.3 11-4.4 4.1-2 9.1-5.3 11-7.3 2-1.9 5-6.4 6.8-10 2.1-4.3 3.2-7.9 3.2-10.8 0-3.8 0.3-4.3 2.7-4.9 1.6-0.4 5.4-2.4 8.5-4.5 3.5-2.3 7-5.7 8.8-8.6 1.8-2.8 3-6 3-8 0-2.5 0.8-3.9 3.7-6.3 2.1-1.8 8-7.6 13-13 5.1-5.5 9.3-10.7 9.3-11.7-0.1-1.1 1.4-2.3 4.2-3.4 2.4-0.9 6.3-3.6 8.8-6 2.6-2.4 5.9-6 7.5-8 2.8-3.5 3.5-3.9 10.5-4.8 4.4-0.6 10.1-2.3 13.7-4 3.5-1.7 8-4.8 10-7 3-3.1 4.6-3.9 7.3-4 1.9 0 6.4-0.7 10-1.6 3.6-0.9 9.7-3.2 13.5-5.1 3.8-1.9 8.6-4.7 10.5-6.3l3.5-2.7c38.2-0.9 43.4-1.4 50-3.2 4.4-1.2 11.3-3.7 15.2-5.6 4.1-2 9.1-5.4 11.4-7.8l4.2-4.2c27.3-0.2 34.6-0.7 40.2-1.9 4.4-1 11.6-3.4 16-5.5 5.5-2.5 10.1-5.7 14.5-9.9 3.6-3.4 7.4-6.1 8.5-6.2 1.1 0 5.8-0.9 10.5-2 4.9-1.2 13.3-4.4 19.7-7.5 9.4-4.6 12.6-6.7 18.6-12.8 5.3-5.2 8.4-9.3 11.1-14.7 2.5-5.1 3.8-9 3.9-12.3l0.2-4.8c12.4-5.4 19-8.9 22.7-11.4 3.8-2.5 8.9-6.4 11.4-8.8 2.5-2.3 6.7-7.4 9.3-11.2 2.6-3.9 5.8-9.7 7-13 1.7-4.5 2.5-9.3 3.1-19.5 0.5-7.4 1.1-15.1 1.5-17 0.6-2.7 2.1-4.6 7.1-8.5 3.5-2.8 8.5-7.7 11.2-11 2.8-3.3 6.6-8.9 8.6-12.5 1.9-3.6 4.2-8.8 5.1-11.5 0.9-2.8 2-12 2.5-21 0.5-8.8 1.2-17.9 1.5-20.3 0.4-3.7 0.3-4.2-1.5-4.2-1.1 0-4.6 0.7-7.8 1.5-3.1 0.8-12.7 2.6-21.2 4-8.5 1.4-15.6 2.3-15.8 2-0.1-0.3 0.9-2.6 2.2-5.3 1.3-2.6 3.1-7.2 4-10.2 0.9-3 1.6-8.5 1.6-12.3 0-3.7-0.5-6.9-1-7.2-0.5-0.3-4.8 2.5-9.4 6.2-4.5 3.8-12.3 9-17.2 11.6-4.9 2.7-13.9 7-19.9 9.6-6 2.7-22.7 8.7-37 13.4-14.3 4.7-42 13.1-61.5 18.7-19.5 5.5-37.3 10.7-39.5 11.5-2.2 0.7-15.9 4.8-30.5 9-14.6 4.2-34.8 10.3-45 13.5-10.2 3.3-23.9 7.2-30.5 8.9-6.6 1.6-17.8 4.1-25 5.5-7.2 1.4-17.5 3.2-23 4-5.5 0.8-16.5 2.4-24.5 3.6-8 1.1-18.2 2.6-22.7 3.2l-8.2 1.3c-8.7-13.9-14.1-22.1-17.6-27-3.6-4.9-10.4-13.9-15.2-20-4.8-6.1-16-18.3-24.8-27.1-8.8-8.9-22.1-21-29.5-26.8-7.4-5.9-17.8-13.7-23-17.3-5.2-3.6-15.8-10.2-23.5-14.6-7.7-4.5-20.5-11.1-28.5-14.8-8-3.7-19.7-8.5-26-10.8-6.3-2.2-15.3-5.2-20-6.6-4.7-1.4-14.6-3.9-22-5.5-7.4-1.6-17.5-3.6-22.5-4.4-5-0.8-15.1-2.2-22.5-3.1-9.6-1-21.9-1.5-42.5-1.3-16 0-30.6 0.3-32.5 0.5zm22.3 33.2c6.2-5.4 7.2-5.9 11.5-5.9 4.4-0.1 5.2 0.3 13.2 7.3 4.7 4 11.2 10.5 14.6 14.3 3.3 3.8 8.5 10 11.6 13.9 3.1 3.8 9.5 13.1 14.4 20.5 4.8 7.4 11.6 18.7 15 25 3.5 6.3 7.9 15.2 9.9 19.7 2.5 6 3.1 8.4 2.2 8.8-0.6 0.2-6.6 2-13.2 3.9-6.6 1.9-18.3 5-26 7-7.7 1.9-19.4 4.7-26 6.1-6.6 1.4-19.6 4.1-29 6.1-9.4 1.9-26.2 5-37.5 6.9-11.3 1.8-26.2 4.1-33.3 4.9-7 0.9-13.4 1.6-14.2 1.6-1.1 0-1.3-0.7-0.9-2.3 0.3-1.2 3.1-8.5 6.1-16.2 3.1-7.7 8-18.9 11-25 3.1-6.1 8.3-15.7 11.6-21.5 3.3-5.8 8.3-13.9 11-18 2.7-4.1 7.3-10.7 10.1-14.5 2.7-3.9 7.9-10.6 11.5-15 3.5-4.4 9.4-11.1 13-14.9 3.6-3.7 9.6-9.5 13.4-12.7zm-32.8-3.3c5.5-0.7 11.5-1.4 13.2-1.5 1.8 0 3.3 0.2 3.3 0.6 0.1 0.5-1.8 2.1-4.2 3.8-2.3 1.6-8.3 6.5-13.3 10.8-4.9 4.3-12.2 11.3-16 15.5-3.9 4.2-9.8 11.3-13.1 15.7-3.4 4.4-9.2 12.7-12.9 18.5-3.8 5.8-10.5 17.7-15 26.5-4.5 8.8-10.4 21.8-13.2 29-2.7 7.1-6.1 16.1-7.3 20-1.3 3.8-2.6 7.3-2.9 7.8-0.3 0.4-7.4 1.4-15.6 2.2-8.3 0.8-25.8 2.2-39 3.1-13.2 0.9-38.7 1.7-89.4 1.9l-1 3.7c-0.9 2.9-0.8 3.9 0.1 4.3 0.7 0.2 6.2 0.9 12.3 1.4 6.1 0.6 21.6 1.6 34.5 2.2 12.9 0.6 31.4 0.8 41 0.5 9.6-0.4 25.1-1.1 34.5-1.7 9.4-0.5 17.1-0.9 17.3-0.7 0.1 0.2-0.9 6.4-2.3 13.8-1.4 7.4-2.5 13.6-2.3 13.7 0.2 0.2 5.5 0.7 11.8 1.3 6.3 0.5 11.8 0.7 12.1 0.3 0.3-0.5 1.1-4 1.8-7.8 0.7-3.9 2.1-10.8 5.1-24l10.8-1.3c5.9-0.8 21.7-2.9 35.2-4.8 13.5-1.9 31-4.6 39-6 8-1.3 22.1-4 31.5-6 9.4-1.9 23.5-5.1 31.5-7 8-1.9 21.1-5.3 29.3-7.7 9.6-2.7 15-3.9 15.6-3.2 0.5 0.6 2.8 6.6 5.1 13.5 2.3 6.9 5.4 17.4 6.9 23.5 1.6 6.1 3.7 15.6 6.6 31.5h26l-0.8-5.7c-0.4-3.2-1.9-11.4-3.3-18.3-1.5-6.9-4.4-18.4-6.6-25.5-2.2-7.2-5.3-16.4-6.9-20.5-1.6-4.1-2.8-7.5-2.7-7.6 0.2 0 6.8-2.4 14.8-5.3 8-2.9 21.5-8.2 30-11.8 8.5-3.6 22.7-10 31.5-14.2 8.8-4.2 16.4-8.3 16.9-9.1 0.7-1.1-0.4-2.7-4.5-6.3-3-2.6-6.3-5-7.4-5.3-1.2-0.3-7 1.9-14.5 5.4-6.9 3.3-19.9 9-29 12.7-9.1 3.7-22.7 9-30.3 11.6-7.5 2.7-14.2 4.9-14.7 4.9-0.5 0-3.1-3.9-5.6-8.8-2.6-4.8-8.4-14.3-12.9-21.2-4.6-6.9-10.9-15.7-14-19.5-3.1-3.9-9.7-11.6-14.8-17.3-5.1-5.7-13.2-14-18.2-18.6-5-4.5-10.5-9.2-12.3-10.4-1.7-1.2-3.2-2.7-3.2-3.2 0-0.6 1.7-1 3.7-1 2.1 0 9.9 0.9 17.3 1.9 7.4 1.1 19.4 3.2 26.5 4.6 7.1 1.5 18 4.2 24 6 6 1.9 16.6 5.4 23.5 8 6.9 2.5 19 7.8 27 11.6 8 3.9 19.7 10 26 13.7 6.3 3.7 16.5 10.2 22.5 14.6 6 4.4 14.8 11.1 19.5 15 4.7 3.9 12.9 11.6 18.4 17.1 5.4 5.5 13.9 14.9 18.9 21 4.9 6.1 11.1 14.2 13.7 18 2.6 3.8 7.1 11.1 10 16 2.9 4.9 7.3 13.5 9.7 19 2.5 5.5 6 14.5 7.8 20 1.9 5.5 4.1 13.4 4.9 17.5 0.8 4.1 2 11.8 2.6 17 0.5 5.2 0.7 9.8 0.3 10.2-0.5 0.3-11.8 2.5-25.3 4.7-13.5 2.2-31.5 5-40 6.1-8.5 1.1-22.5 2.6-31 3.5-8.5 0.8-21.4 1.9-28.5 2.5-7.1 0.5-24.3 1.6-38 2.5-13.8 0.8-43.2 2-65.5 2.6-30.1 0.9-52.6 0.9-87.5 0-25.9-0.6-60.3-1.8-76.5-2.6-16.2-0.8-42.5-2.4-58.5-3.5-16-1.1-40.5-3.2-54.5-4.5-14-1.4-37.9-4.1-53-6.1-15.1-1.9-29.7-3.8-37.3-4.9l0.7-9c0.3-4.9 1.8-14.2 3.2-20.5 1.5-6.3 3.9-15.3 5.6-20 1.6-4.7 6.2-15.3 10.3-23.5 4-8.3 10.9-20.4 15.3-27 4.4-6.6 11.1-15.8 14.8-20.5 3.8-4.7 13.4-15.1 21.4-23.1 8-8 19.5-18.4 25.5-23.1 6-4.7 15.7-11.6 21.5-15.3 5.8-3.8 15.9-9.7 22.5-13.2 6.6-3.5 16.3-8.2 21.5-10.5 5.2-2.2 13.3-5.4 18-7 4.7-1.6 14.4-4.7 21.5-6.8 7.1-2.1 18.9-5 26-6.4 7.1-1.4 17.5-3.2 23-4zm-651.5 43.4c0-0.5 0.3-1 0.7-1 0.5 0 3.3 1.8 6.3 3.9 3 2.1 9.8 6.2 15 8.9 5.2 2.8 16.7 8 25.5 11.5 8.8 3.6 29.3 10.7 45.5 16 16.2 5.2 38.9 12.5 50.5 16.1 11.6 3.5 29.1 8.8 39 11.7 9.9 2.8 28.6 8.5 41.5 12.6 13.5 4.3 24 8.2 24.8 9.1 0.7 0.9 1.2 3.3 1.2 5.2 0 2 1.2 5.6 2.9 8.5 1.5 2.7 5.7 7.7 9.2 10.9 3.5 3.2 8.9 7.6 11.9 9.6 3 2 10.2 6.3 16 9.5 5.8 3.1 11.1 6.1 11.7 6.6 0.8 0.5 1.9 0.5 2.8-0.1 1.1-0.7 5.7 0.1 16.2 3 8.2 2.1 17.9 4.6 21.8 5.4 3.9 0.9 11.1 2.2 16 3 4.9 0.8 11.9 1.7 15.5 2.1 3.6 0.3 8.7 0.8 11.5 1.1 3.8 0.5 4.6 0.8 3.2 1.5-1 0.5-6.9 0.5-14.5-0.1-7-0.5-18.1-1.5-24.7-2-6.6-0.6-15.6-2-20-3.1-4.4-1.1-10.7-3.4-14-5-4.1-2-6.3-2.6-7-1.9q-1 1.1 0 2.4c0.5 0.7 3 3.8 5.4 6.7 2.4 3 3.9 5.5 3.5 5.7-0.5 0.1-4.7-1.7-9.4-4.2-4.7-2.4-12.1-5.5-16.5-6.9-4.4-1.4-13.4-3.6-20-5.1-6.6-1.4-19.9-3.9-29.5-5.6-9.6-1.7-22.1-4.2-27.8-5.5-5.6-1.4-12.6-3.7-15.5-5.1-2.8-1.5-8.4-4.7-12.2-7.2-3.9-2.5-9.9-6.3-13.5-8.5-3.6-2.2-14.8-8.1-25-13.2-10.2-5.1-26.2-12.7-35.5-16.8-9.4-4.1-23.8-10.6-32-14.5-8.3-3.8-19.3-9.3-24.5-12.2-5.2-2.8-13.8-8-19-11.5-5.2-3.4-12.5-8.9-16.1-12.1-3.6-3.3-8.7-8.6-11.4-11.9-2.6-3.3-5.9-8.4-7.2-11.3-1.2-2.8-2.3-5.7-2.3-6.2zm1391.5 2.6c2.7-1.9 5.6-3.4 6.2-3.5 1-0.1 0.8 1.2-0.5 4.6-1 2.7-3.6 7.5-5.7 10.7-2.2 3.3-7.4 9.1-11.5 12.9-4.1 3.8-11.3 9.5-16 12.7-4.7 3.1-13.5 8.4-19.5 11.8-6 3.4-18 9.4-26.5 13.3-8.5 3.9-22.7 10.2-31.5 14.1-8.8 3.8-25.9 12-38 18.2-12.1 6.2-27.8 14.8-35 19.1-7.2 4.3-15.3 8.9-18 10.1-2.8 1.3-14.2 4.1-25.5 6.4-11.3 2.2-28.6 5.6-38.5 7.6-9.9 2-20.9 4.5-24.5 5.6-3.6 1.1-8.1 2.8-10 3.8-1.9 0.9-3.8 2.5-4.3 3.4-0.4 0.9-1.4 1.4-2.2 1.1-0.8-0.3-2.5 0.2-3.8 1-1.2 0.8-2.5 1.5-3 1.5-0.4 0-0.7-0.3-0.7-0.8 0-0.4 2-3.4 4.5-6.7 3-4 4.2-6.3 3.6-7q-1-1-9.8 2.7c-4.8 2-11.3 4.4-14.3 5.3-3 0.9-11.3 2-18.5 2.5-7.2 0.5-18.6 1.4-25.5 2.1-8.5 0.8-13.1 0.8-14.5 0.2-1.6-0.8 0.4-1.3 9-2.2 6-0.6 16.6-2.1 23.5-3.2 6.9-1.1 19.7-3.9 28.5-6.1 8.8-2.2 18-4.4 20.5-4.9 2.5-0.6 5.6-1.2 7-1.4 1.4-0.3 7.9-3.4 14.5-7.1 6.6-3.6 14.2-8.3 17-10.4 2.7-2 7.4-6.2 10.4-9.1 3-3 6.7-7.7 8.2-10.4 1.9-3.2 2.9-6.4 2.9-9 0-3.7 0.2-4.1 3.7-5.3 2.1-0.7 20.2-6.2 40.3-12.3 20.1-6 41.2-12.5 47-14.3 5.8-1.9 24.9-8 42.5-13.5 17.6-5.6 38.5-12.5 46.5-15.3 8-2.8 19.2-6.9 25-9.2 5.8-2.3 15.2-6.7 21-9.9 5.8-3.1 12.7-7.2 15.5-9.1zm-1429.3 19.8c0-0.3 0.8-0.3 1.7 0.1 0.9 0.4 5 1.5 9.1 2.5 4.1 1.1 13.8 2.8 21.5 3.9 10.8 1.6 14.1 1.8 14.6 0.8 0.5-0.8 4.7 1.8 12.5 7.8 6.6 5 16.8 11.9 22.9 15.5 6 3.5 16.8 9.3 24 12.8 7.1 3.6 19.5 9.4 27.5 12.9 8 3.6 19 8.6 24.5 11 5.5 2.5 17.4 8.2 26.5 12.8 9.1 4.6 23.9 12.8 33 18.3 9.1 5.4 18 10.6 19.7 11.5 1.8 1 7.2 2.6 12 3.8 4.9 1.1 9 2.5 9.3 3.1 0.3 0.5 3.4 1.1 7 1.3 3.6 0.2 13.2 1.5 21.5 3 8.2 1.4 24.4 4.9 36 7.7 11.5 2.7 21.4 5.4 22 5.9 0.5 0.4-6 1.1-14.5 1.4-8.5 0.4-52.9 0.5-181.6 0l-9.9-6.6c-5.5-3.7-11.8-7.6-14-8.7-2.2-1.1-6.8-2.9-10.3-4.1-3.9-1.3-11.1-2.5-19.5-3.1-7.2-0.6-15.9-1.7-19.2-2.6-3.3-0.8-8.5-2.4-11.5-3.5-3-1.1-8-3.5-11-5.2-3-1.8-7-4.7-8.8-6.4-1.7-1.8-4.1-5.1-5.2-7.3-1.1-2.2-2-4.4-2-5 0-0.6 0.9-1 2-1 1.1 0 2-0.6 2-1.3 0.1-0.6-3-3.5-6.7-6.3-3.7-2.8-9.7-8.2-13.2-12-3.6-3.8-8.1-9.4-10.1-12.4-1.9-3-4.7-9.1-6.1-13.5-1.5-4.4-2.9-10.4-3.3-13.3-0.3-2.8-0.3-5.2 0.1-5.2 0.5 0 1.7 1.4 2.8 3.2 1.1 1.8 4.7 6.2 8 9.7 3.3 3.5 9.6 9.2 14 12.6 4.4 3.4 11.6 8.4 16 11 4.4 2.7 12.5 7 18 9.5 5.5 2.6 17.4 7.5 26.5 11 9.1 3.4 21.4 8.6 27.5 11.4 6 2.9 16.2 8.6 22.5 12.8 6.3 4.2 13.7 9.6 21.5 16.4l17.5 0.7c9.6 0.4 30.2 0.9 45.7 1.2 24.7 0.4 28.3 0.3 28.3-1 0-1.2-1.9-1.6-9.3-2-5-0.3-24.7-0.9-78.2-2.1l-6.5-5.8c-3.6-3.1-10.8-8.6-16-12.1-5.2-3.5-14.7-8.9-21-11.9-6.3-3-17.8-7.9-25.5-10.9-7.7-3-19.9-8-27-11.1-7.2-3.1-16.6-7.8-21-10.4-4.4-2.6-11.2-7.2-15-10.3-3.9-3-10.4-9.1-14.5-13.5-5.3-5.6-8.9-10.7-12.3-17.2-2.6-5.1-4.6-9.5-4.5-9.8zm1463.3 2.7c5-1 9.6-1.9 10.2-2 0.7-0.1 1.3 0.1 1.3 0.4 0 0.3-1 2.4-2.1 4.7-1.2 2.4-4.5 7.6-7.3 11.7-2.8 4-8.5 10.6-12.6 14.5-4.1 3.9-12.2 10.3-18 14.1-5.8 3.9-16.6 9.7-24 13.1-7.4 3.4-20.5 8.7-29 11.9-8.5 3.1-22 9.1-30 13.1-8 4.1-18.8 10.6-24 14.5-5.2 3.9-11.2 8.7-17.1 14.4l-34.7 0.7c-19.1 0.4-39.3 1-45 1.3-8.2 0.4-10.2 0.8-10.2 2 0 1.2 1.3 1.5 6.2 1.5 3.5-0.1 24.4-0.5 86.8-2l6.2-5.3c3.5-2.9 10.6-8.2 15.8-11.7 5.2-3.5 14.9-8.9 21.5-12.1 6.6-3.1 18.1-8 25.5-10.9 7.4-2.9 17.7-7 22.7-9.1 5.1-2.2 14.4-6.6 20.5-9.9 6.2-3.4 14.7-8.7 18.8-11.8 4.1-3.1 10.8-9.1 14.9-13.2 4-4.1 8.7-9.5 10.2-12 2.9-4.5 2.9-4.5 2.9-1.5 0 1.7-0.7 6.2-1.5 10-0.8 3.8-3.4 11.1-5.9 16-3.5 7.3-6.1 10.7-13.2 18.1-4.9 5-11.5 10.7-14.7 12.7-3.1 2-5.5 4.3-5.3 4.9 0.2 0.7 1.5 1.2 3 1 1.4-0.1 2.6 0 2.6 0.3 0 0.3-0.9 2.2-1.9 4.2-1 2.1-3.9 6-6.2 8.7-3.2 3.6-6.8 6-13.4 9.2-5 2.4-12.8 5.2-17.5 6.4-4.7 1.1-14.3 2.4-21.5 3-8.5 0.7-15.3 1.9-19.5 3.3-3.6 1.3-9.4 3.9-13 5.9-3.6 2-9.3 5.7-19 12.8l-71.8 0.6c-39.4 0.4-83.7 0.3-98.5-0.2-17-0.6-26.6-1.3-26.4-1.9 0.2-0.6 1.4-1.1 2.8-1.3 1.3-0.2 6.2-1.4 10.9-2.7 4.7-1.3 16.4-4 26-5.9 9.6-1.9 22.2-4.2 28-5.1 6.1-1 12.7-1.4 15.7-1.1 4.8 0.5 5.3 0.4 5.3-1.4 0-1.5 0.9-2.1 3.7-2.6 2.1-0.3 6.5-1.4 9.8-2.5 3.3-1 11-4.8 17-8.5 6-3.6 11.7-7.2 12.5-7.9 0.8-0.7 9.2-5.3 18.5-10.2 9.3-5 25.1-12.7 35-17.3 9.9-4.5 23.6-10.7 30.5-13.7 6.9-3 20.2-9.4 29.5-14.2 9.3-4.8 22.2-12.1 28.5-16.4 6.3-4.2 14.1-9.8 17.2-12.4 4.5-3.7 6-4.5 7-3.6 1 0.8 4.4 0.7 14.3-0.8 7.2-1 17-2.7 22-3.8zm-285.5 66c1.4-0.5 2.8-1 3.2-1 0.5-0.1 0.8 0.9 0.8 2.1 0 1.3-0.9 4.1-1.9 6.3-1 2.2-4.2 6.4-7.2 9.2-3 2.9-7.7 6.9-10.4 8.9-2.8 2-8.8 5.5-13.5 7.9-4.7 2.3-12.3 5.6-17 7.2-4.7 1.7-14.1 4.4-21 6.2-6.9 1.7-20.7 4.7-30.8 6.6-10 1.9-18.8 3.5-19.5 3.5-0.7 0-1.7-2.4-2.4-5.7-0.7-3.2-2.6-9.9-4.3-14.8-1.7-4.9-3-9.4-3-10 0-0.6 13.1-3.2 29.2-5.8 16.1-2.6 36.5-6.1 45.3-7.8 8.8-1.7 23.7-5 33-7.4 9.3-2.4 18.1-4.8 19.5-5.4zm-884.5 3c-0.5-3.1-0.4-3.3 1.7-2.8 1.3 0.3 7.2 1.9 13.3 3.6 6.1 1.7 19.8 4.9 30.5 7 10.7 2.2 33.9 6.3 51.5 9.2 17.6 2.9 32.1 5.3 32.3 5.3 0.2 0.1-0.9 3.5-2.3 7.6-1.5 4.1-3.5 11.1-6.2 23.5l-4.4-0.3c-2.4-0.1-13.4-2.1-24.4-4.3-11-2.3-24.3-5.2-29.5-6.6-5.2-1.3-13.6-4.1-18.5-6.1-4.9-2.1-12.5-5.7-16.8-8.2-4.4-2.5-10.8-7-14.4-10-3.5-3-7.8-7.5-9.3-10-1.6-2.5-3.2-6-3.5-7.9zm-254.1 30.1c-0.2-1.2-0.2-2.2 0.1-2.2 0.3 0 2.6 1.6 5.2 3.7 2.7 2 7.9 5.1 11.8 6.9 3.8 1.8 10.8 4.2 15.5 5.4 5.2 1.3 13.9 2.5 22.5 3 8.8 0.5 15.9 1.4 19 2.5 2.7 1 7.2 2.9 10 4.2 2.7 1.4 9.3 5.4 24 15.4l91 0.5c50.1 0.3 97.4 0.2 105.3-0.3 13.7-0.8 14.2-0.7 14.9 1.2 0.3 1.1 2.6 4.9 5 8.5 2.4 3.6 4.4 6.8 4.3 7.2 0 0.5-3.3 0.8-7.3 0.8-3.9 0-11.9 0.4-17.7 1-5.8 0.5-25.1 2.1-43 3.5-17.9 1.3-39.7 2.9-48.5 3.4-8.8 0.6-36 1.3-105 2.3l-6.5-4.6c-3.6-2.5-8.5-5.3-11-6.2-3.3-1.2-9.5-1.8-23.5-2.3-17.4-0.7-19.6-1-26-3.4-3.8-1.5-10.2-4.9-14-7.5-3.8-2.7-9.1-7.5-11.8-10.8-2.6-3.2-6.3-8.8-8.1-12.4-1.8-3.6-3.9-9-4.5-12-0.7-3-1.4-6.5-1.7-7.8zm1389.6 1.9c3-2.2 5.8-4 6.1-4.1 0.3 0 0.4 1.5 0.2 3.2-0.2 1.8-0.9 5.3-1.4 7.8-0.6 2.5-2.7 7.6-4.7 11.5-2 3.8-6.4 9.8-9.7 13.3-3.3 3.5-9.2 8.4-13 10.8-3.8 2.4-9.7 5.3-13 6.4-4.6 1.7-9.9 2.4-23 3.1-9.3 0.5-18.8 1.1-21 1.5-2.2 0.4-6.2 1.8-9 3.2-2.7 1.4-6.7 3.9-12.7 8.7l-43.1-0.8c-23.8-0.4-54-1.4-67.2-2.2-13.2-0.9-31.9-2.2-41.5-3-9.6-0.8-28.5-2.3-42-3.5-13.5-1.1-25.1-1.8-25.7-1.5-0.7 0.3-1.3-0.2-1.3-1 0-0.8 1.6-3.4 3.6-5.8 1.9-2.3 4-5.6 5.6-10.2l209.3-0.1 10.5-6.9c5.8-3.8 13.2-8.1 16.5-9.6 3.3-1.5 8.5-3.2 11.5-3.8 3-0.6 10.9-1.5 17.5-2.1 6.6-0.5 15.4-1.8 19.5-2.9 4.1-1 10.9-3.3 15-4.9 4.1-1.7 10-4.9 13-7.1zm-1062.9 36.8c0.1-0.5 0.6-0.7 1.3-0.3 0.6 0.4 2.5 1.8 4.1 3 1.7 1.2 4.1 2.5 5.5 2.9 2 0.5 3.1 0 5.3-2.2 2.5-2.5 3.7-2.8 10-3.1 5.3-0.2 9.8 0.4 17.2 2.3 5.5 1.4 10.5 3 11 3.5 0.6 0.5 0.8 1.1 0.5 1.3-0.3 0.1-5.4 0-11.5-0.3-6-0.3-13.9-0.2-17.5 0.2-4.7 0.6-7.7 1.6-10.7 3.8-2.4 1.7-5 3-5.8 3-0.8 0-2.6-1.5-3.9-3.3-1.3-1.7-3.1-4.7-4-6.5-0.9-1.7-1.6-3.7-1.5-4.3zm738.4 1.6c1.7-1.4 3.3-2.5 3.8-2.5 0.4 0 0.7 1.3 0.7 3 0 1.9-1.1 4.2-2.9 6.2-1.6 1.8-3.9 3.9-5.2 4.6-2.2 1.2-3.1 1-8.9-2.1-3.6-1.9-8.7-3.7-11.5-4.1-2.7-0.4-10.2-0.3-16.5 0.4-7.6 0.7-11.8 0.8-12.5 0.1q-1-1 6-3c3.9-1.1 9.5-2.5 12.5-3.2 3-0.6 8.5-1 12.2-0.8 5.7 0.3 7.1 0.8 9.5 3.2 2.6 2.6 3.1 2.8 6.3 1.7 1.9-0.6 4.9-2.2 6.5-3.5zm-709.5 15.4c1.9-0.4 4.2-0.7 5-0.8 0.8 0 4.4 0.4 8 0.9 3.6 0.6 9.3 2 12.8 3.3 3.4 1.2 6.2 2.5 6.2 2.9 0 0.5-6.9 0.6-15.2 0.3-11.6-0.5-15.8-0.3-17.4 0.7-1.1 0.7-3.6 2.3-5.5 3.5-2.3 1.5-4.2 2-5.9 1.6-1.4-0.3-3.5-1.5-4.8-2.7-1.2-1.1-2.2-3.1-2.2-4.4 0-2.1 0.1-2.1 3-0.7 2.8 1.4 3.3 1.3 7.8-1.2 2.6-1.5 6.3-3 8.2-3.4zm659.5 2.9c6.1-2 10-2.7 16.5-2.7 7.1-0.1 9.4 0.3 14 2.5 3 1.4 6.4 2.3 7.5 2 1.1-0.3 2.9-0.9 3.9-1.3 1.8-0.7 1.9-0.5 1.2 2.2-0.4 1.6-1.5 3.8-2.4 4.8-0.9 0.9-2.8 2-4.2 2.3-1.8 0.3-4.3-0.6-14.5-6.8l-12 0.7c-6.6 0.4-13.1 0.8-14.5 0.9-1.4 0-2.7-0.3-3-0.9-0.3-0.6 3.1-2.2 7.5-3.7zm49.4 5.3c1.3-2.8 2.8-5.1 3.2-5.1 0.5 0 1 0.4 1.2 0.9 0.1 0.4 16.9 2.5 37.2 4.5 20.4 2 46.7 4.3 58.5 5.2 11.8 0.8 44.5 1.8 123.5 2.8l18-10.9h18.7c18.3 0 18.8 0.1 18.2 2-0.3 1.1-1.8 4.7-3.4 8-1.6 3.3-5.1 8.4-7.7 11.4-2.6 3-8.2 7.6-12.3 10.3-4.1 2.7-10.9 5.9-15 7.2-4.1 1.3-11 2.9-15.2 3.5-4.3 0.6-12.6 1.1-18.5 1.1-6 0-17.1-0.5-24.8-1-7.7-0.6-20.7-1.7-29-2.5-8.2-0.9-23.7-2.9-34.2-4.5-10.6-1.7-28.2-4.8-39-6.9-10.9-2.2-30.6-6.7-43.8-10.2-13.2-3.4-26.1-6.7-28.7-7.3-2.6-0.6-5-0.7-5.5-0.3-0.4 0.5 0.1 1.5 1.2 2.3 1.1 0.8 7 3 13 5 6.1 1.9 21.8 6.1 35 9.3 13.2 3.3 31.4 7.3 40.5 9 9.1 1.7 20.8 3.7 26 4.5 5.2 0.9 14.9 2.2 21.5 3 6.6 0.9 20.8 2.3 31.5 3.1 10.7 0.8 24.3 1.5 30.3 1.5 5.9 0 10.7 0.2 10.7 0.5 0 0.3-2.1 2.5-4.7 5-2.7 2.5-8.4 6.3-12.8 8.5-5.6 2.8-10.7 4.4-17 5.5-4.9 0.8-12.5 1.5-16.7 1.5-4.3 0-14.4-0.7-22.5-1.5-8.2-0.8-23.3-3.1-33.8-5.1-10.4-1.9-25.1-5.1-32.5-7-7.4-1.9-18.4-5.1-24.5-7.1-6-1.9-15.9-5.3-22-7.5-6-2.2-16.2-6.3-22.5-9.1-6.3-2.7-14.4-6.6-17.9-8.6-3.5-2-6.5-3.8-6.7-4.1-0.1-0.3 2.4-1.3 5.7-2.3 3.9-1.1 7.4-3 10.2-5.6 2.3-2.1 5.3-6.2 6.6-9zm-751.4-2c8.3-1 15.3-1.9 15.8-2 0.4 0 1.2 1.1 1.8 2.6 0.6 1.6 2.4 4.6 4 6.8 1.5 2.2 4.5 5 6.6 6.2 2.1 1.1 5.7 2.6 8.1 3.2 2.3 0.6 4.2 1.4 4.2 1.8 0 0.5-7.5 4.5-16.7 9-9.3 4.5-20.2 9.5-24.3 11.1-4.1 1.6-14.7 5.3-23.5 8.2-8.8 2.8-24.1 7.1-34 9.5-9.9 2.5-26.1 5.8-36 7.4-9.9 1.7-24.1 3.5-31.5 4.2-7.4 0.6-17.8 0.9-23 0.6-5.2-0.4-12.2-1.4-15.5-2.3-3.3-0.9-8.4-2.7-11.2-4-2.9-1.3-7.8-4.8-10.8-7.7-3.1-2.8-5.6-5.4-5.5-5.7 0-0.3 7.1-0.9 15.7-1.3 8.7-0.4 21.4-1.2 28.3-1.7 6.9-0.6 18.6-1.7 26-2.6 7.4-0.8 22.5-3.1 33.5-4.9 11-1.9 29.2-5.5 40.5-8 11.3-2.5 24.8-5.7 30-7.1 5.2-1.3 14.6-4.1 20.8-6.2 6.4-2.1 11.2-4.2 11.2-5 0-0.6-0.3-1.4-0.7-1.6-0.5-0.2-8.4 1.6-17.8 4-9.3 2.5-24.4 6.2-33.5 8.4-9.1 2.1-25.3 5.5-36 7.4-10.7 1.9-27.4 4.7-37 6-9.6 1.4-25.8 3.2-36 4.2-10.2 0.9-28.2 1.7-40 1.7-17.8 0.2-22.7-0.1-28.5-1.6-3.8-1-10.1-3.3-14-5.1-3.8-1.8-9.7-5.3-13-7.8-3.3-2.5-7.9-7.2-10.2-10.4-2.2-3.3-5.1-8.2-6.3-10.9-1.1-2.8-1.9-5.4-1.7-6 0.3-0.6 7.5-1 37.2-1l4.8 3c2.6 1.6 6.2 3.9 8 5 3.1 1.9 4.9 2 53.2 1.9 37.3 0 55.7-0.5 72.5-1.7 12.4-1 33.1-2.7 46-3.8 12.9-1.1 30.3-2.8 38.5-3.8zm46.5 20.2c1.4-0.6 4.7-1.1 12.5-0.8l5.1 15c2.8 8.2 7.5 20.9 10.4 28 2.8 7.1 8.9 20.4 13.5 29.5 4.6 9.1 12 22.6 16.5 30 4.5 7.4 12.7 20 18.3 28 5.5 8 14.3 20.4 19.6 27.5 5.2 7.1 12.4 16.6 16 21 3.6 4.4 11.5 13.9 17.6 21 6.2 7.1 14.7 16.6 19 21 4.2 4.4 9.6 10 11.8 12.4 2.3 2.5 3.3 3.8 2.1 3-1.2-0.8-5-3.6-8.5-6.3-3.5-2.6-8.2-5.7-10.4-6.8-2.2-1.1-4.7-1.7-5.5-1.4-1.3 0.5-1.3 0.8 0.2 2.4 0.9 0.9 7 5.5 13.5 10.2 6.5 4.6 16.3 12 21.8 16.4 5.5 4.4 13.5 11.2 17.9 15.1 4.3 3.8 18.9 17.3 32.5 29.9 13.5 12.6 31.7 29.9 56.1 54.1v11.5h113.5l0.8-5.2c0.6-4 1.7-6.4 4.6-9.8 2.1-2.5 6.7-7.2 10.2-10.5 3.5-3.3 17.9-16.9 31.9-30.1 14-13.3 30.9-29 37.5-34.9 6.6-5.9 15.4-13.4 19.5-16.6 4.1-3.3 14.3-11 22.7-17.1 8.7-6.5 15-11.8 14.7-12.6-0.2-0.7-1.2-1-2.6-0.6-1.3 0.4-5.2 2.4-8.8 4.6-3.6 2.1-7.6 4.6-9 5.5-1.4 0.8 2.1-2.9 7.7-8.3 5.5-5.5 14.1-14.4 19-19.9 4.9-5.5 12.2-14.1 16.4-19 4.1-4.9 11.1-13.7 15.6-19.5 4.4-5.8 12.5-16.8 18-24.5 5.5-7.7 12.4-17.8 15.4-22.5 3-4.7 8.6-13.9 12.4-20.5 3.8-6.6 10.4-19.1 14.7-27.8 4.3-8.6 10-21 12.7-27.5 2.7-6.4 6.6-16.4 8.6-22.2 2.6-7.6 4.3-11.1 6.3-12.6 1.5-1.1 3.7-3.6 4.8-5.5 1.2-1.9 2.9-3.7 3.8-4.2 0.9-0.4 2.8-0.1 4.4 0.5 1.5 0.7 5 2.7 7.7 4.4 2.8 1.7 8.6 4.9 13 7.1 4.4 2.2 13.6 6.3 20.5 9.1 6.9 2.7 19.9 7.5 29 10.5 9.1 3.1 24.6 7.6 34.5 10.1 9.9 2.5 26.1 5.9 36 7.6 9.9 1.6 19 3 20.3 3 1.3 0 2.2 0.6 2.2 1.5 0 0.8-1.5 2.7-3.2 4.1-1.8 1.5-5 3.5-7 4.5-2.1 1.1-7.1 2.8-11 3.9-4 1-11.6 2.4-16.8 2.9-6.2 0.7-12.9 0.7-19.5 0.1-5.5-0.6-14.5-2.1-20-3.4-5.5-1.3-15.5-4.3-22.2-6.5-6.8-2.3-18.7-6.8-26.5-10.2-7.9-3.3-18.6-8.3-23.8-11.1-5.2-2.8-12.4-6.9-16-9.1-3.6-2.2-7.5-4.9-8.7-5.9-1.3-1-2.7-1.6-3.3-1.3-0.5 0.3-1 1.2-1 2 0 0.8 2.4 3.2 5.3 5.4 2.8 2.1 9.3 6.2 14.2 9.1 5 3 13.3 7.4 18.5 9.8 5.2 2.4 14.9 6.7 21.5 9.4 6.6 2.7 17.9 6.7 25 8.9 7.2 2.3 13.5 4.5 14 5 0.6 0.6-0.3 2.2-2.5 4.4-1.9 1.9-5.7 4.5-8.5 5.7-3.4 1.4-8 2.3-14 2.6-6.4 0.3-11.3 0-17-1.3-4.4-0.9-12.9-3.5-19-5.7-6-2.2-15.3-6.2-20.5-8.8-5.2-2.6-13.3-7.3-17.9-10.4-4.7-3.1-9.1-5.4-9.8-5.1-0.7 0.3-1.3 0.9-1.3 1.5 0 0.6 2.4 2.8 5.3 5.1 2.8 2.3 9.5 6.5 14.7 9.5 5.2 2.9 13.8 7.1 19 9.2 5.2 2.2 14.5 5.6 20.5 7.7 6.1 2 11.2 3.9 11.5 4.1 0.3 0.2-0.4 1.3-1.5 2.5-1.1 1.2-4.1 3.2-6.7 4.5-2.7 1.3-8.1 2.9-12 3.6-5.7 0.9-9.2 0.9-15.8-0.1-4.7-0.7-11.9-2.7-16-4.3-4.1-1.7-10-4.7-13-6.6-3-1.9-7.9-5.5-10.7-7.8-2.9-2.4-5.7-4.2-6.3-3.9-0.6 0.3-0.3 1.7 0.8 3.6 0.9 1.8 4.2 5.2 7.2 7.6 3 2.4 8.2 6 11.5 8 3.3 1.9 9.9 4.8 14.8 6.4 4.8 1.6 9.6 2.9 10.7 2.9 1.1 0 2 0.3 2 0.7-0.1 0.5-2 2.6-4.3 4.8-2.8 2.6-6.4 4.7-10.3 5.9-4.8 1.5-7.9 1.8-16.9 1.4-9-0.4-12.6-1-20-3.7-4.9-1.7-9.4-3.3-10-3.4-0.5-0.1-1 0.7-1 1.7 0 1.3 1.8 2.8 5.5 4.7 3 1.5 8.2 3.5 11.5 4.4 3.3 0.8 10.6 1.9 16.3 2.3 5.6 0.4 10.2 0.9 10.2 1.2 0.1 0.3-0.7 1.3-1.7 2.2-1 0.9-4.5 2.9-7.8 4.5-5.6 2.6-6.8 2.8-19 2.8-11.8 0-13.6-0.3-19.5-2.7-3.6-1.5-6.8-2.5-7.2-2.2-0.5 0.2-0.8 1.1-0.8 1.9 0 0.8 2.3 2.6 5.3 3.9 2.8 1.3 7 2.9 9.2 3.5 2.2 0.6 7.4 1.1 11.5 1.1 4.1 0 9.3-0.5 11.5-1 2.2-0.5 4.2-0.7 4.5-0.4 0.3 0.2-1.5 2.5-4 5-2.5 2.4-6.7 5.6-9.5 6.9-3.7 1.9-6.6 2.5-11 2.5-3.6 0-7.6-0.8-10-1.9-2.2-1-6-3.9-8.5-6.6-2.6-2.8-5-4.5-5.7-4.1-0.7 0.3-1.3 1.5-1.3 2.6 0 1.1 1.7 3.8 3.8 6.1 2 2.2 6.2 5.3 9.2 6.7 4.6 2.3 6.9 2.7 13.7 2.7 4.9 0 8.3 0.4 8.3 1 0 0.6-1 2.6-2.3 4.5-1.5 2.2-4.4 4.5-8.2 6.4-5.4 2.6-6.9 2.9-15.5 2.8-6.7-0.1-11.4-0.7-15.7-2.1-3.9-1.3-6.5-1.7-6.8-1.1-0.3 0.6-0.1 1.6 0.4 2.2 0.5 0.7 3.3 2.4 6.2 3.7 3 1.3 8.8 2.9 12.9 3.5 7.1 1.1 7.5 1.3 7.1 3.7-0.1 1.3-0.7 3.2-1.2 4.1-0.5 1-2.8 2.8-5.1 3.9-3.7 1.9-5.4 2.1-11.8 1.5-4.1-0.3-9.2-0.8-11.2-1.1-3.3-0.4-3.8-0.2-3.8 1.5 0 1.6 1.2 2.3 6.8 3.6 3.7 0.8 9.5 1.5 19.2 1.4l-2 3c-1.1 1.6-4.2 4.1-7 5.5-2.7 1.4-7.6 3-10.7 3.6-4.1 0.7-7.4 0.7-11.3-0.1-3-0.6-7.5-2-10-3.3-2.4-1.2-5.3-3.1-6.2-4.2-1.7-1.9-1.9-1.9-3.6-0.3-1.6 1.5-1.6 1.8 1.1 4.2 1.5 1.4 6.1 4.2 10.2 6.1 5.6 2.6 7.4 4 7.2 5.2-0.1 1-2.3 2.9-4.7 4.3-4 2.2-5.7 2.5-26.5 2.6l-19.5 15.6c-10.7 8.5-23.3 18.7-28 22.4-4.7 3.8-11.4 9.7-21.5 19.5l4.4 3.7c2.5 2 7.2 6.2 10.5 9.2 3.4 3 8 7.1 10.3 9 3 2.5 4.4 4.5 4.9 7 0.5 3 0 4.4-3.4 9.5-2.2 3.3-5.7 7.3-7.8 8.8-3.5 2.6-4.5 2.8-14.4 1.7v3.7c0 2.9-0.7 4.5-3 6.8-2.6 2.5-3.9 3-8.1 3-4.4 0-4.9 0.2-4.9 2.2 0 1.4-1.4 3.5-3.5 5.3-2.9 2.5-4.4 3-8.5 3-2.7 0-5.8-0.4-6.7-0.9-1-0.5-2.3-0.7-3-0.3-0.6 0.4-1.3 2.3-1.5 4.2-0.2 2.8-1 3.9-4.3 5.7-2.2 1.3-5.1 2.3-6.5 2.3-1.4 0-4.1-1-6-2.2-1.9-1.1-6.1-4.3-9.2-7-3.2-2.6-6.8-4.8-8-4.8-1.3-0.1-3.2 0.9-4.3 2-1.7 1.8-1.9 2.9-0.5 12h-125l0.8-4.9c0.6-4.2 0.4-5.3-1.3-7.1-1.1-1.1-2.9-2.1-4-2.1-1.1 0-3.3 1-5 2.3-1.6 1.2-5 3.9-7.5 6.1-2.5 2.1-6.1 4.3-8 4.9-2.9 0.9-4.2 0.8-8-1-2.5-1.1-5.3-2.9-6.3-3.9-0.9-1-1.8-2.8-2-4.1-0.2-2-0.6-2.2-4.7-1.6-3.1 0.4-5.7 0.1-8.2-1-2.1-0.9-4.6-2.9-5.5-4.6-1-1.7-2.7-3-3.8-3-1.1 0-3.5-1.2-5.2-2.5-1.8-1.4-4-4-4.9-5.8-0.8-1.7-1.3-3.8-1-4.5 0.3-0.6-0.1-1.7-0.9-2.2-1.1-0.7-2.5-0.5-4.7 0.6-2.9 1.4-3.6 1.5-6.3 0.1-1.6-0.8-4.5-2.7-6.4-4.3-1.9-1.6-5.2-5.6-7.4-8.9-3.6-5.5-3.8-6.2-2.6-8.4 0.8-1.4 7.6-8.1 15.2-15 7.6-6.9 13.8-13.1 13.8-13.6 0-0.5-2.4-3.3-5.4-6-2.9-2.8-8-7.3-11.3-10-3.2-2.8-11.3-9.4-17.9-14.6-6.6-5.2-16.7-13.1-22.5-17.4-5.8-4.3-10.9-8.5-11.5-9.3-0.8-1.1-1.8-1.2-5-0.3-2.2 0.6-5.2 1.1-6.7 1.1-1.6 0-5.2-0.5-8-1.2-3.1-0.7-6.7-2.4-8.5-4-1.8-1.5-3.3-3.2-3.3-3.8 0-0.6 2.1-1.7 4.8-2.5 2.6-0.8 6.8-2.8 9.5-4.5 2.6-1.6 4.7-3.6 4.7-4.3 0-0.6-0.4-1.9-0.9-2.7-0.8-1.3-1.5-1-4.3 1.6-1.8 1.6-5.8 3.9-8.8 4.9-3.5 1.2-8.1 1.9-12.5 1.9-5.5 0-8.2-0.6-12.7-2.7-3.2-1.5-6.9-3.8-8.3-5.2-1.4-1.4-2.3-2.9-2-3.5 0.3-0.6 2.6-1 5.3-1 2.6 0 6.7-0.5 9.2-1 2.5-0.6 5.5-1.6 6.8-2.3 1.2-0.6 2.2-1.8 2.2-2.5 0-0.6-0.4-1.4-1-1.7-0.5-0.3-3.4 0.2-6.2 1-2.9 0.8-7.4 1.5-10 1.5-2.7 0-6.5-0.8-8.5-1.9-2.4-1.1-4.5-3.2-5.5-5.5-1-2-1.8-3.9-1.8-4.4 0-0.4 3-1 6.7-1.4 3.8-0.4 9.1-1.4 11.8-2.2 2.8-0.8 5.9-2.1 6.9-2.8 1.1-0.7 1.7-2 1.4-2.8-0.5-1.3-1.4-1.3-6.9-0.2-3.5 0.7-10 1.3-14.4 1.3-4.4 0.1-10-0.5-12.4-1.3-2.5-0.7-6.2-2.9-8.3-4.8-2.1-1.9-3.9-4.6-4.1-5.9-0.2-2.4 0-2.5 7.3-2.6 4.1 0 9.5-0.6 12-1.4 2.9-0.8 6-2.8 8.8-5.7 2.3-2.4 4.5-5.6 4.8-7.2 0.3-1.5 0.1-3.1-0.6-3.7-0.8-0.7-2.2 0.3-4.8 3.4-2 2.4-5.9 5.5-8.7 6.9-4.2 2.1-6 2.4-11.5 2-3.7-0.3-8.2-1.4-10.5-2.5-2.2-1.1-6.2-4.1-9-6.6-2.7-2.5-4.8-4.8-4.5-5.2 0.3-0.3 3-0.1 6 0.6 3 0.7 9.3 1.2 14 1.2 6.4 0.1 9.9-0.5 14.3-2.1 3.1-1.2 6.3-3.2 7.1-4.5 0.8-1.2 1.3-2.8 1-3.5-0.2-0.6-1-1.2-1.6-1.2-0.7 0-3.5 1.2-6.3 2.7-4.8 2.7-5.6 2.8-18.5 2.8-11.6 0-14.1-0.3-18-2.1-2.5-1.1-6-3.4-7.8-5-1.8-1.6-3-3.1-2.7-3.4 0.4-0.3 4.6-0.6 9.3-0.6 4.8-0.1 11.4-0.9 14.7-1.8 3.3-0.9 7.8-2.4 10-3.3 2.2-0.9 5.2-2.5 6.8-3.5 1.5-1 2.7-2.5 2.7-3.3 0-1-0.7-1.4-2.2-1-1.3 0.2-6.3 1.8-11.3 3.5-5.8 2.1-11.8 3.4-17 3.7-5.9 0.4-9.6 0.1-14-1.1-3.3-1-8.8-3.6-12.3-5.9-3.5-2.3-6.3-4.4-6.3-4.7 0.1-0.3 2.7-1 5.8-1.6 3.2-0.6 9.2-2.6 13.3-4.4 4.1-1.9 10.4-5.3 14-7.6 3.6-2.2 7.5-5.2 8.6-6.5 1.2-1.3 2.9-3.6 3.8-5.2 1.4-2.4 1.4-2.8 0.1-3.2-0.9-0.3-3.7 1.5-6.7 4.1-2.9 2.5-7.8 6.1-10.8 7.9-3 1.9-8.4 4.5-12 5.8-3.6 1.4-9.9 3-14 3.7-4.1 0.7-10.2 1-13.5 0.7-3.3-0.3-8.7-1.6-12-2.8-3.3-1.3-7.3-3.5-12-7.8l3.8-1.5c2-0.9 4.2-1.6 4.7-1.6 0.6 0 6.9-2.3 14-5 7.2-2.8 16.9-7 21.8-9.4 4.8-2.5 12.3-6.9 16.6-9.8 4.3-2.9 8.4-6.1 9-7q1.1-1.7 0.1-2.8c-0.7-0.6-3.5 0.7-8.5 4.1-4.1 2.8-13.8 8.2-21.5 11.9-7.7 3.7-17.6 7.9-22 9.3-4.4 1.4-10.9 3.3-14.5 4.2-3.6 0.9-10.1 1.7-14.5 1.7-4.9 0-10-0.7-13-1.7-2.7-0.9-6.3-2.5-8-3.5-1.6-1-4.1-3-5.5-4.4-1.4-1.4-2.3-2.7-2-2.9 0.3-0.2 8.6-3.2 18.5-6.6 9.9-3.5 22.7-8.4 28.5-10.8 5.8-2.5 14.6-6.6 19.5-9.1 5-2.4 12.6-6.7 17-9.4 4.4-2.8 9.7-6.3 11.8-7.9 2-1.6 3.7-3.3 3.7-3.9 0-0.6-0.6-1.3-1.2-1.6-0.7-0.3-5.6 2.2-10.8 5.6-5.2 3.3-14.2 8.5-20 11.4-5.8 3-15 7.3-20.5 9.6-5.5 2.4-14.5 5.9-20 8-5.5 2-16.5 5.5-24.5 7.6-14.2 3.8-14.8 3.9-32 3.9-13.2 0-19.3-0.4-25-1.8-4.1-0.9-10.2-3-13.5-4.6-3.3-1.7-7.2-4.1-8.7-5.5-1.6-1.4-2.5-2.9-2.2-3.4 0.4-0.4 9.5-2.2 20.3-4 10.8-1.8 27.7-5.2 37.6-7.7 9.9-2.4 25-6.7 33.5-9.4 8.5-2.8 20.9-7.2 27.5-9.9 6.6-2.7 16.3-7.1 21.5-9.7 5.2-2.6 11.5-6.2 14-7.9 2.5-1.7 5.6-3.6 7-4.3zm46 0.4l5.3 0.6c2.8 0.4 18 2.2 33.7 4.1 15.7 1.9 37.7 4.4 49 5.5 11.3 1.2 32.9 3 48 4.1 15.1 1.1 36.5 2.4 47.5 3 11 0.5 34.4 1.4 52 2 17.6 0.5 53.4 1 79.5 1 26.1 0 58.8-0.5 72.5-1 13.8-0.5 35.8-1.7 49-2.5 13.2-0.9 34.6-2.5 47.5-3.6 12.9-1.1 32.3-3.1 43-4.4 10.7-1.4 27.8-3.8 38-5.4 10.2-1.6 18.7-2.8 19-2.5 0.3 0.2-1.4 5.8-3.7 12.4-2.4 6.6-7.3 18.6-11.1 26.8-3.7 8.1-9.8 20.1-13.6 26.7-3.8 6.6-10.5 17.6-15 24.5-4.4 6.9-12.1 18.1-17.1 25-4.9 6.9-12.6 17-16.9 22.5-4.4 5.5-12.9 15.9-19 23-6 7.1-17.6 20.2-25.7 29-8.1 8.8-26.3 27.5-40.5 41.5-14.3 14.1-34.2 33.4-44.4 43.1-10.2 9.6-23.4 21.9-29.5 27.5-6 5.5-13.7 12.3-23 20.4l-65 0.1-10-8.8c-5.5-4.8-16.1-14.3-23.5-21.2-7.4-6.8-27.7-26.1-45-42.7-17.3-16.6-37.4-36.4-44.5-44.1-7.2-7.6-16.6-17.9-21-22.8-4.4-4.9-10.3-11.7-13.1-15-2.8-3.3-12.8-15.7-22.3-27.5-9.5-11.8-21.6-28-27-36-5.5-8-13.6-20.6-18.1-28-4.4-7.4-11.6-20.7-15.9-29.5-4.3-8.8-10.1-21.9-12.9-29-2.8-7.1-5.3-14.3-5.6-15.9zm969-190.2c-4.7 2.4-13 6.2-18.5 8.4-5.5 2.2-14.5 5.7-20 7.7-5.5 2.1-18.1 6.3-28 9.4-9.9 3.2-30.9 9.8-46.5 14.8-15.7 5-40.7 12.7-55.5 17.2-14.9 4.5-33 10-40.3 12.3-13.2 4.2-13.3 4.2-13.3 7.2 0 1.7-1.3 5.5-3 8.5-1.6 3-5.9 8.5-9.7 12.2-3.7 3.7-8.5 8.1-10.7 9.7-2.2 1.6-9.7 6-16.5 9.7-6.9 3.7-12.9 7.3-13.3 7.8-0.4 0.6-0.1 1.2 0.5 1.4 0.7 0.2 5.5-0.8 10.8-2.1 5.2-1.4 15.8-3.7 23.5-5.1 7.7-1.5 22.8-4.5 33.7-6.7 10.9-2.1 21.2-4.5 23-5.2 1.8-0.8 9.8-5.2 17.8-9.9 7.9-4.7 19.9-11.5 26.5-15 6.6-3.6 17.4-9.1 24-12.3 6.6-3.1 18.9-8.8 27.5-12.5 8.5-3.7 22-9.8 30-13.4 7.9-3.7 18.7-9.1 24-12 5.2-3 13.6-8.2 18.7-11.5 5.1-3.4 13.1-9.8 17.8-14.3 4.7-4.6 8.4-8.7 8.1-9.3-0.2-0.5-0.8-1.1-1.2-1.2-0.5-0.1-4.8 1.8-9.4 4.2zm-1363-2c0 0.8 2.8 4.3 6.2 7.6 3.4 3.4 9.4 8.5 13.3 11.3 3.8 2.9 9.7 6.8 13 8.8 3.3 2 9.6 5.6 14 8 4.4 2.4 16.8 8.5 27.7 13.6 10.9 5.1 20 9.2 20.3 9.2 0.2 0 8.4 3.7 18.2 8.1 9.8 4.5 24.3 11.6 32.3 15.7 7.9 4.2 19.2 10.6 25 14.2 5.7 3.7 12.9 8.1 16 9.8 3 1.6 7.9 3.7 11 4.5 3 0.9 12.7 2.9 21.5 4.6 8.8 1.7 22.3 4.2 30 5.6 7.7 1.4 18.1 3.7 23.2 5.1 5.1 1.3 9.9 2.4 10.8 2.4 0.8 0 1.2-0.6 1-1.2-0.3-0.7-3.8-3.1-7.8-5.2-4-2.1-10.8-6.2-15.2-9.1-4.4-2.8-10.5-7.4-13.5-10.2-3.1-2.7-7.2-7.4-9.3-10.4-2.2-3.1-4.3-7.7-5-10.8l-1.2-5.5c-34.9-11.1-51.6-16.2-59.5-18.5-8-2.3-24.9-7.4-37.5-11.3-12.7-3.8-31.4-9.7-41.5-13-10.2-3.2-23.5-7.5-29.5-9.5-6.1-1.9-18.2-6.3-27-9.8-8.8-3.4-20.2-8.3-25.3-10.9-5.1-2.5-9.7-4.6-10.2-4.6-0.6 0-1 0.7-1 1.5zm-41.6 15.7c-0.3 0.7 0.6 3.3 2.1 5.8 1.5 2.5 6.2 8 10.4 12.4 4.1 4.3 10 9.7 13.1 12.1 3 2.4 8.8 6.3 13 8.7 4.1 2.4 13.1 6.9 20 10.1 6.8 3.1 17.9 7.7 24.5 10.2 6.6 2.6 17.1 6.9 23.5 9.7 6.3 2.8 14.6 7 18.5 9.3 3.8 2.2 10.4 6.7 14.7 9.8 4.3 3.1 9.4 7.3 11.5 9.2l3.8 3.5c46.5 1.5 60.2 1.8 60.5 1.5 0.2-0.3 0.2-1-0.2-1.7-0.3-0.7-5.5-4.3-11.5-8-5.9-3.6-20.1-11.3-31.3-17-11.3-5.7-27.1-13.2-35-16.7-8-3.6-22.2-10-31.5-14.3-9.4-4.4-23.3-11.5-31-15.9-7.7-4.4-18.8-11.5-24.5-15.8-9.6-7.1-11.1-7.8-16.5-8.5-3.3-0.4-11.4-1.6-18-2.7-6.6-1.1-12.8-2.2-13.7-2.5-1-0.3-2 0.1-2.4 0.8zm1450.6-0.2c-2 0.5-10.7 1.9-19.5 3.1l-16 2.2c-11.7 8.9-20.2 14.7-26.5 18.6-6.4 4-18.3 10.5-26.5 14.6-8.3 4-22.7 10.7-32 14.9-9.4 4.1-22.7 10.1-29.6 13.3-6.9 3.2-19.9 9.8-29 14.6-9 4.9-19.8 11-23.9 13.6-4.2 2.7-7.7 5.6-7.8 6.5-0.2 1.5 1.6 1.6 20.5 1.1 11.4-0.3 25-0.7 30.3-1 9-0.5 9.6-0.6 13-3.8 1.9-1.8 6.9-5.8 11.2-9 4.3-3.1 10.8-7.6 14.5-9.8 3.7-2.3 12.4-6.7 19.3-9.9 6.8-3.2 18.3-7.9 25.5-10.5 7.1-2.6 18.4-7.3 25-10.3 6.6-3.1 14.2-6.9 17-8.5 2.7-1.6 7.9-5 11.5-7.5 3.5-2.5 9.5-7.5 13.3-11.1 3.8-3.6 8.9-9.4 11.3-12.8 2.4-3.5 4.1-7 3.9-7.8-0.3-0.8-0.9-1.4-1.3-1.4-0.4 0.1-2.3 0.5-4.2 0.9zm-6.6 36.6c-4.9 4.2-12.1 9.5-15.9 11.9-3.9 2.4-12.7 7.1-19.5 10.3-6.9 3.3-18.2 8.1-25 10.7-6.9 2.6-19.3 7.7-27.5 11.3-8.4 3.7-19.5 9.6-25 13.2-5.5 3.7-13.4 9.4-17.5 12.9-7 5.7-7.9 6.2-12.5 6.2-2.8 0-5.9 0.2-7 0.4-1.1 0.2-24.8 0.6-52.5 0.9-45.3 0.5-51.8 0.8-62.5 2.6-6.6 1.2-15.1 2.8-18.8 3.6-3.7 0.8-7 1.4-7.2 1.4-0.3 0-0.5 0.7-0.5 1.5 0 1.3 5.4 1.5 43.2 1.5 23.8 0 60.5-0.3 81.6-0.7l38.4-0.8c8.7-6.5 15.1-10.4 19.8-12.9 4.6-2.4 10.9-5.1 14-6 3-0.9 11.1-2.1 18-2.6 6.8-0.6 16.3-1.9 21-3.1 4.6-1.1 11.6-3.5 15.5-5.3 3.8-1.8 8.6-4.7 10.7-6.4 2.1-1.8 3.8-3.6 3.8-4.2 0-0.5-1.4-1.4-3-2-1.7-0.5-3.3-1.8-3.6-2.7-0.3-1-0.1-2.6 0.3-3.7 0.4-1 3.7-3.6 7.3-5.7 3.5-2.1 8.9-5.8 12-8.2 3-2.3 8.2-7.4 11.5-11.2 3.3-3.9 7.3-9.6 9-12.7 2-3.9 2.6-6 1.9-6.7-0.7-0.6-4 1.5-10 6.5zm-1441.8-4.8c-0.3 0.4 0.8 3.4 2.6 6.7 1.9 3.5 7 9.7 12.3 15.1 4.9 5 11.8 11.1 15.4 13.5 3.5 2.4 7 5.4 7.7 6.7 1.2 2 1.1 2.5-1.1 4.7-1.4 1.4-2.5 3.2-2.5 4 0 0.8 1.6 2.8 3.7 4.3 2.1 1.6 5.8 4 8.3 5.4 2.4 1.4 7.3 3.5 10.7 4.7 3.4 1.1 8.4 2.6 11 3.2 2.6 0.5 10.4 1.4 17.3 2 6.8 0.5 14.9 1.6 18 2.5 3 0.9 8.6 3.2 12.5 5.1 3.8 2 10.6 6.1 15 9.1l8 5.6c155.2 1.1 159.5 1 159.5-0.6 0-1.4-1.6-2.1-6.8-3.2-3.7-0.8-12.1-2.4-18.7-3.6-10.4-1.7-17.6-2.1-52-2.5-22-0.2-47.7-0.7-57-1l-17-0.6c-9.3-7.8-17-13.3-23-17.4-6.1-4-13.7-8.6-17-10.2-3.3-1.6-10.5-4.8-16-7.1-5.5-2.3-16.6-6.7-24.5-9.8-8-3.1-19-7.9-24.5-10.7-5.5-2.7-13.9-7.5-18.5-10.7-4.7-3.1-11.4-8-14.8-10.8-3.4-2.9-6.6-5.2-7.1-5.2-0.4 0-1.1 0.3-1.5 0.8zm1151.4 37.8c-4.7 1.4-18.4 4.4-30.5 6.9-12.1 2.4-34.1 6.3-48.9 8.7l-26.8 4.3c0.7 3.9 2 9.2 3.3 14.2 2 7.8 2.7 9.3 4.4 9.3 1.1 0 10.1-1.6 20-3.5 9.9-2 23.1-5 29.5-6.7 6.3-1.6 14.6-4.1 18.5-5.5 3.8-1.4 10.1-4.1 14-6 3.8-2 9.7-5.5 13-7.8 3.3-2.3 8-6.3 10.5-8.9 2.4-2.5 4.5-5.1 4.5-5.8 0-0.7-0.7-1.3-1.5-1.4-0.9-0.1-5.4 0.9-10 2.2zm-861.5-0.6c-0.3 0.6 0.1 2 0.9 3.3 0.8 1.2 3.8 4.2 6.7 6.7 3 2.5 7.8 6 10.9 7.8 3 1.8 8.6 4.9 12.5 6.7 3.8 1.9 11 4.7 16 6.3 4.9 1.7 17.5 4.8 28 7 10.4 2.3 21.7 4.6 25 5.2 3.3 0.5 6.7 1 7.7 1 1.1 0 2-1 2.3-2.7 0.3-1.6 1.7-6.6 3.1-11.3 1.3-4.7 2.1-8.8 1.7-9.1-0.5-0.3-11.2-2.3-23.8-4.3-12.7-2.1-31.4-5.3-41.5-7.1-10.2-1.9-25.2-5-33.3-6.9-8.1-2-15-3.6-15.2-3.6-0.2 0-0.7 0.5-1 1zm-254.5 35.3c-0.7 0.9-0.2 2.9 1.9 7.2 1.6 3.3 5.1 8.7 7.8 11.9 2.6 3.3 7.9 8.1 11.8 10.6 3.8 2.6 9.7 5.8 13 7 5.1 2.1 8.5 2.5 25 3.1 13 0.5 20.4 1.2 23.7 2.3 2.6 0.9 7.8 3.7 11.5 6.3l6.8 4.7c83.1-1.9 114.8-3.1 131-4.4 14.8-1.1 34.8-2.7 44.5-3.6 9.6-0.8 21.4-1.8 26.3-2.2 4.9-0.4 9-1 9.3-1.4 0.2-0.5-0.8-2.5-2.2-4.5l-2.5-3.8c-99.5 0.5-146.7 0.3-168.9-0.1l-40.5-0.8c-13.2-8.8-20.2-12.9-24-14.8-3.9-2-9.5-4.3-12.5-5.2-3.2-0.9-9-1.6-13.5-1.6-4.4 0-12.1-0.7-17-1.5-5-0.9-11.3-2.3-14-3.2-2.8-0.8-7.6-2.8-10.7-4.4-4.4-2.2-6-2.5-6.8-1.6zm1372 2c-3.6 1.7-10.4 4.1-15 5.4-4.7 1.2-14.2 2.7-21 3.3-6.9 0.6-15 1.5-18 2.1-3.1 0.6-8.7 2.7-12.5 4.6-3.9 2-10.9 6.1-15.5 9.2l-8.5 5.6c-45 1.1-91.9 1.3-133.4 1.2l-75.3-0.2c-2.2 3.9-2.8 5.8-2.8 6.8 0 0.9 0.3 1.7 0.7 1.7 0.4 0 7.7 0.7 16.3 1.5 8.5 0.8 19.7 1.9 25 2.5 5.2 0.5 18.5 1.6 29.5 2.5 11 0.8 28.7 1.9 39.5 2.4 10.7 0.6 37.2 1.3 59 1.7l39.5 0.6c6.2-4.9 9.5-7.2 11.5-8.2 1.9-1 5.5-2.3 8-3 2.4-0.7 12.6-1.6 22.5-2 13.5-0.6 19.3-1.3 23.5-2.7 3-1.1 8.6-4 12.5-6.5 3.8-2.5 9.6-7.4 12.8-10.9 3.2-3.5 7.1-9.1 8.7-12.4 1.7-3.3 3-6.6 3-7.2 0-0.7-0.8-1.3-1.8-1.2-1 0-4.7 1.5-8.2 3.2zm-949.1 19c-3.9 7.8-6.8 14.8-6.5 15.5 0.3 0.6 1 1.2 1.6 1.2 0.5 0 1.7-1.7 2.6-3.7 0.8-2.1 1.6-3.9 1.7-4.1 0.1-0.1 2.3 0.1 4.9 0.5l4.7 0.8c1 8.7 1.4 9.5 3.1 9.5 1.8 0 1.9-0.5 1.5-5.2-0.2-2.9-0.9-10.6-1.5-17-0.9-10.8-1.2-11.8-3-11.8-1.6 0-3.5 3-9.1 14.3zm4.7-2c1.9-4.4 2.8-5.4 3.5-4.3 0.4 0.8 0.8 3.9 0.9 12l-3.3-0.6c-1.8-0.4-3.4-0.8-3.5-1-0.1-0.2 0.9-3 2.4-6.1zm20.6-8.6c-0.7 0.2-1.9 1.8-2.7 3.4-0.9 1.6-1.5 4-1.5 5.4 0 1.6 1.7 4.4 4.5 7.5 2.4 2.8 4.5 5.8 4.5 6.8 0 0.9-0.9 2.5-2 3.5-1.7 1.4-2.7 1.5-5.3 0.7-2.4-0.8-3.6-0.7-4.5 0.2-0.6 0.7-0.9 1.9-0.5 2.6 0.4 0.6 2.3 1.5 4.3 1.8 1.9 0.4 4.7 0.4 6.2 0 1.7-0.4 3.3-1.8 4.3-3.6 0.8-1.6 1.5-4.6 1.5-6.5 0-2.8-1-4.5-4.5-8.2-2.5-2.7-4.5-5.5-4.5-6.3-0.1-0.8 0.5-2.1 1.1-2.7 0.7-0.7 2.7-1.3 4.6-1.3 2.5 0 3.2-0.4 3-1.7-0.2-1.3-1.3-1.9-3.8-2-1.9-0.1-4 0.1-4.7 0.4zm502.4 7.3c-0.9 3.9-2 7-2.4 7-0.4 0-2.2-2.5-4-5.5-1.8-3-3.7-5.5-4.2-5.5-0.6 0-1.3 0.7-1.5 1.5-0.3 0.8 1.6 4.8 4.3 8.8 3 4.4 5.3 9.2 6 12.5 0.6 2.8 1.7 5.5 2.4 5.8 0.7 0.3 1.6 0.2 2-0.2 0.4-0.5 0.2-3.6-0.4-6.9-0.9-5.1-0.7-7.3 1-14.5 1.1-4.7 1.7-8.8 1.3-9.3-0.3-0.4-1.1-0.7-1.7-0.7-0.6 0-1.9 3.2-2.8 7zm-485.6-5.1c0 0.6-0.9 6.2-2 12.4-1 6.1-2 13-2.2 15.2-0.3 2.9 0.1 4 1.2 4.3 1 0.2 1.7-1 2.3-4.5 0.5-2.6 1.1-5.4 1.3-6 0.2-0.7 1.8-1.3 3.6-1.3 1.8 0 4.4-0.6 5.8-1.3 1.4-0.7 3-2.8 3.7-5 0.7-2 1-4.9 0.7-6.4-0.3-1.6-1.5-3.8-2.7-4.9-1.3-1.2-4.3-2.5-6.9-2.8-3.1-0.5-4.7-0.3-4.8 0.3zm2.6 9.1c0.5-4.2 0.9-5 2.7-5 1.2 0 3 0.7 4 1.7 1.3 1.3 1.6 2.6 1.2 4.6-0.3 1.5-1.3 3.4-2.1 4.2-0.9 0.8-2.5 1.5-3.5 1.5-1.1 0-2.2-0.4-2.4-1-0.3-0.5-0.3-3.2 0.1-6zm459.1 0c-1.8 3.9-3.5 7.1-3.7 7.1-0.3-0.1-1-2.4-1.5-5.3-0.8-4-1.5-5.4-3-5.7-1.9-0.3-2 0-1.2 5.5 0.4 3.3 1.5 8.9 2.2 12.7 0.8 3.7 1.5 8.1 1.5 9.7 0 2.4 0.4 3 2.2 3 2.2 0 2.2-0.2 1.5-7-0.5-4.4-0.4-7.2 0.3-7.5 0.5-0.3 3.2 2.4 6 6 2.7 3.6 5.4 6.5 6 6.5 0.5 0 1.2-0.7 1.5-1.5 0.2-0.8-1.9-4.5-5-8.5-3.1-3.8-5.5-7.4-5.5-8 0-0.5 1.1-3.2 2.5-6 1.3-2.7 2.5-5.7 2.5-6.5 0-0.8-0.7-1.5-1.6-1.5-0.9 0-2.8 2.7-4.7 7zm-442.6 0.3c-0.7 3.4-1.9 10.3-2.7 15.2-0.8 5-1.4 9.3-1.4 9.8 0 0.4 0.9 0.7 2 0.7 1.7 0 2.1-1.2 3.4-9.2 0.9-5.1 2-12 2.4-15.3 0.5-3.3 0.8-6.3 0.5-6.7-0.2-0.5-1-0.8-1.7-0.8-0.9 0-1.8 2.3-2.5 6.3zm9.5 0c-0.3 2.8-1.1 8.6-1.6 12.7-0.5 4.1-1.2 9-1.5 10.8-0.5 2.7-0.2 3.2 1.5 3.2 1.1 0 2-0.7 2-1.5 0-0.8 0.4-3.7 1-6.5 0.8-4 1.4-5 3-5 1.1 0 2.3 0.6 2.7 1.3 0.4 0.6 1.2 3.7 1.8 6.7 0.8 3.8 1.6 5.6 2.8 5.8 1.3 0.2 1.6-0.6 1.6-3.5 0-2.1-0.7-5.5-1.5-7.5-1.3-3.5-1.3-3.9 0.4-5 1-0.7 2.4-2.3 3-3.5 0.6-1.3 1.2-3.6 1.2-5.3 0-1.9-1-3.9-2.5-5.5-2.1-2-3.5-2.5-7.9-2.5h-5.4zm4 1c0.5-1.8 1.3-2.3 3.2-2 1.5 0.1 3.2 1.3 4.1 2.9 1.4 2.4 1.4 2.9-0.2 5.2-1.2 1.9-2.6 2.7-4.7 2.7-2.8 0-3-0.3-3-3.3 0-1.8 0.3-4.3 0.6-5.5zm405.4-3.9c-1.9 0.6-4.2 2.4-5 3.8-1.2 2.1-1.3 3.5-0.5 6.5 0.8 3.3 1.8 4.3 6.5 6.6 3 1.5 6 3.6 6.7 4.5 0.7 1 1.3 2.3 1.3 3 0 0.7-0.8 2-1.8 2.9q-1.7 1.6-5.7 1.2c-3.4-0.3-4.1 0-4.3 1.7-0.3 1.4 0.4 2.1 2.5 2.7 1.5 0.3 4.4 0.2 6.5-0.3 2.1-0.5 4.4-2 5.3-3.2 0.8-1.2 1.5-3.6 1.5-5.2 0-1.7-0.9-4.5-2-6.3-1.5-2.4-3.2-3.6-6.7-4.5-2.8-0.8-5-2-5.6-3.2-0.6-1.4-0.6-2.8 0.2-4.3 0.8-1.8 1.9-2.2 5.1-2.2 3.3 0 4-0.4 4-2 0-1.1-0.7-2.3-1.5-2.5-0.9-0.3-1.9-0.5-2.3-0.5-0.4 0-2.3 0.6-4.2 1.3zm-387.9 6.4c-0.6 3.7-1.6 10.2-2.1 14.5-0.6 4.3-1 8.7-1 9.8 0 1.2 0.6 2 1.7 2 1.5 0 2-2.1 3.6-14.8 1-8.1 1.8-15.4 1.8-16.2-0.1-0.8-0.7-1.6-1.5-1.8-0.9-0.3-1.6 1.6-2.5 6.5zm8.5 7.5c-1 7.3-2.1 14.8-2.5 16.6-0.6 3.1-0.4 3.4 1.4 3 1.6-0.3 2.1-1.5 2.7-6.4 0.4-3.3 0.9-8.3 1.2-11.2 0.3-2.9 0.9-5.2 1.3-5.2 0.4 0 2.3 5 4.3 11.2 1.9 6.1 4.1 11.8 5 12.5 0.8 0.8 1.7 1 2.1 0.6 0.4-0.5 1.4-6.5 2.3-13.3 0.9-6.9 1.8-14 2.1-15.8 0.4-2.6 0.1-3.2-1.3-3.3-1.5 0-1.9 1.7-3.1 10.8-0.7 5.9-1.5 11-1.8 11.3-0.4 0.2-0.9-0.2-1.2-1-0.3-0.9-1.9-6.3-3.6-12-2.5-8.7-3.4-10.6-5.1-10.8-1.9-0.3-2.2 0.6-3.8 13zm349.6-10.6c-3.9 0.3-5.4 0.8-5.9 2.1-0.4 1-0.1 6.5 0.5 12.3 0.7 5.7 1.4 12.4 1.7 14.7 0.5 4.2 0.5 4.3 4.2 4.3 2.1 0 5.9-0.4 8.5-0.8 4.1-0.6 4.8-1.1 4.8-3 0-2.1-0.4-2.2-6.8-2l-6.7 0.3-0.7-9c9.2-1.4 10.2-1.9 10.2-3.5 0-1.8-0.7-2-5.5-2h-5.5c-0.6-5.9-0.2-7.9 0.4-8.3 0.6-0.4 3-0.7 5.3-0.7 3.9 0 4.3-0.3 4.3-2.5 0-1.8-0.5-2.5-1.8-2.4-1 0.1-4.1 0.4-7 0.5zm-320.8 2.6c-1.5 1.2-3.6 4.1-4.6 6.3-1.1 2.3-1.8 6.4-1.8 10 0 4.2 0.5 6.9 2 9.2 1.1 1.8 3.4 4 5.2 4.9 2.5 1.3 4.3 1.4 7.8 0.7l4.5-0.8c1.5-11.2 1.6-14.8 1.1-15.2-0.5-0.5-2.5-0.8-4.5-0.8-2.6 0-3.6 0.4-3.9 1.7-0.2 1.3 0.4 1.8 2.3 1.8 2.3 0 2.4 0.3 2.2 4.2-0.2 4.1-0.4 4.3-3.7 4.6-2.3 0.2-4.4-0.3-5.9-1.5-1.7-1.4-2.5-3.2-2.9-6.8-0.3-2.8 0-6.7 0.6-8.8 0.7-2.1 2.3-4.7 3.6-5.8 2.1-1.8 3.3-2 7.5-1.5 4.6 0.5 5.1 0.4 5.1-1.4 0-1.3-0.9-2.2-2.3-2.5-1.2-0.3-3.9-0.5-5.8-0.5-2.3 0-4.7 0.8-6.5 2.2zm28.7 1.7c-0.1 1.1 0.5 2.3 1.4 2.6 0.8 0.2 2.5 0.5 3.7 0.4 2.2 0 2.2 0.2 1.5 6.8-0.4 3.7-1 10-1.5 14-0.7 6.6-0.6 7.3 1 7.3 1 0 2-1 2.2-2.3 0.3-1.2 1-7.3 1.8-13.5l1.3-11.2c6.9-0.5 8-1 8.2-2.3 0.2-1.3-0.6-1.9-3-2.2-1.8-0.3-6.2-0.7-9.9-1.1-6.3-0.6-6.7-0.5-6.7 1.5zm276.5 4.3l0.6 6.3c-7.5 1.1-10.3 1.5-11 1.5-0.7 0-1.2-1.3-1.2-2.8-0.1-1.5-0.4-4.4-0.8-6.5-0.5-2.7-1.3-3.8-2.5-3.8-1.5 0.1-1.7 0.7-1.3 4.3 0.3 2.3 1.1 9.8 1.8 16.5 1.1 11.2 1.4 12.3 3.3 12.3 1.9 0 1.9-0.4 1.2-7.5-0.6-6.3-0.5-7.6 0.8-8 0.8-0.3 3.5-0.5 6-0.5h4.5c-0.1 5.8 0.3 8.9 0.7 10.7q0.8 3.3 2.5 3.3c1.3 0 1.8-0.8 1.8-2.8-0.1-1.5-0.7-8.1-1.5-14.7-0.9-6.6-1.5-12.6-1.5-13.3 0-0.7-1-1.2-2.1-1.2-1.9 0-2 0.4-1.3 6.2zm-251.1-1c-1.8 1.8-3.8 5.1-4.4 7.3-0.6 2.2-1.1 5.5-1.1 7.5 0 1.9 0.4 5 1 7 0.5 1.9 2.2 4.7 3.7 6.2 2.1 2.1 3.7 2.8 6.5 2.8 2.1 0 5-0.7 6.5-1.4 1.5-0.8 3.6-3.1 4.7-5.3 1.4-2.7 2-6 2-10.8 0-4.8-0.5-8.1-1.7-10.3-1-1.8-3.1-3.9-4.7-4.7-1.7-0.9-4.4-1.5-6.1-1.5-2.2 0-4.1 0.9-6.4 3.2zm1.5 4.5c1.6-2.1 3-2.7 5.5-2.7 2.6 0 4 0.6 5.6 2.7 1.7 2.3 2 3.9 1.7 10.1-0.3 6.5-0.6 7.6-3.1 9.7-1.5 1.4-3.6 2.5-4.7 2.5-1.1 0-3.2-1.1-4.6-2.3-1.6-1.4-2.8-3.7-3.1-6.2-0.3-2.2-0.3-5.6 0-7.5 0.3-2 1.5-4.8 2.7-6.3zm213.2-7.1c-1.5 0.2-2.2 1.1-2.2 2.4 0 1.6 0.7 2 3.7 2.2l3.8 0.3c1.7 18.6 2.3 24.7 2.4 25.7 0 1.1 0.9 1.8 2.3 1.8 2.3 0 2.3-0.1 1.3-9.8-0.5-5.4-1-11.8-1-14.2 0-4.4 0.1-4.6 3.2-4.8 2.5-0.2 3.3-0.7 3.3-2.2 0-1.9-0.7-2-7.3-1.9-4 0.1-8.3 0.3-9.5 0.5zm-172.9 2.2c-1.2 0.5-3 1.9-4.2 3.3-1.1 1.3-2.5 3.6-3.1 5.1-0.6 1.5-1 5.2-1 8.3 0 3 0.6 6.9 1.3 8.7 0.7 1.8 2.6 4.3 4.2 5.6 2.4 1.8 3.9 2.2 8 2 4.2-0.3 5-0.7 5-2.3 0-1.7-0.6-2-3-1.7-1.7 0.1-4.3-0.2-5.8-0.8-1.7-0.6-3.3-2.4-4.2-4.5-0.9-2-1.6-5.5-1.6-7.8 0-2.8 0.8-5.4 2.3-7.7 2.2-3.3 2.7-3.6 7.8-3.6 4.3-0.1 5.5-0.5 5.7-1.8 0.1-0.9-0.1-1.8-0.5-2-0.4-0.2-2.5-0.7-4.7-1-2.2-0.3-5-0.2-6.2 0.2zm23.1 0.9c-1.7 1-4.3 3.8-5.8 6.3-1.9 3.3-2.7 5.8-2.6 9.5 0 2.7 0.4 6.6 1 8.7 0.5 2.1 2.3 4.9 4 6.3q3 2.5 6.7 2.5c2.3 0 4.9-0.8 6.5-2 1.5-1.1 3.5-3.5 4.4-5.3 1.1-2.1 1.7-5.7 1.8-10.2 0-4.8-0.5-8.1-1.7-10.3-1-1.8-2.8-3.9-4-4.7-1.2-0.8-3.4-1.7-4.7-2-1.6-0.4-3.7 0.1-5.6 1.2zm0.4 4.4c0.9-0.6 2.4-1.1 3.4-1.1 1 0 2.5 0.3 3.4 0.7 0.9 0.4 2.3 2 3 3.5 0.8 1.5 1.4 5.3 1.3 8.5 0 3.2-0.5 6.9-1.2 8.2-0.7 1.4-2.4 3.2-3.9 4-2.2 1.3-3.1 1.3-5.3 0.3-1.4-0.7-3.2-2.8-4-4.7-0.9-2-1.5-5.3-1.5-7.5 0-2.2 0.7-5.6 1.6-7.4 0.8-1.9 2.3-3.9 3.2-4.5zm117.9-5.4c-0.2 0.4-0.1 6.4 0.3 13.3 0.5 6.8 0.8 14 0.9 16 0 2.8 0.5 3.5 2.1 3.5 1.8 0 2-0.7 2-7.3 0-6.6 0.1-7.2 2-7.2 1.1 0 2.7 1 3.7 2.3 1 1.2 2.4 4.2 3.3 6.5q1.5 4.2 3.2 4.2c1 0 1.8-0.7 1.8-1.5 0-0.9-1.2-4-2.5-7-2.3-5.1-2.4-5.7-1-7.8 0.8-1.2 1.5-4.2 1.5-6.5 0-3.2-0.7-4.9-2.5-6.7-2.1-2.2-3.5-2.5-8.5-2.5-3.3 0-6.1 0.3-6.3 0.7zm4.3 9.3c0-5 0-5 3.2-5.1 1.8 0 3.8 0.6 4.5 1.3 0.7 0.7 1.3 2.4 1.3 3.8 0 1.3-0.6 3-1.2 3.7-0.7 0.7-2.7 1.3-4.5 1.3-3.3 0-3.3-0.1-3.3-5zm-101.5-7.7c-0.2 0.7-0.3 8.2-0.2 16.7 0.1 13 0.4 15.5 1.7 15.5 1.2 0 1.6-2.2 2-11.7l0.5-11.6c10.1 21.8 11.3 23.7 13.2 23.7 2.3 0.1 2.3 0 2.3-15.9 0-13.6-0.3-16-1.5-16-1.2 0-1.7 2-2.1 9.7-0.3 5.4-0.6 10.3-0.7 11-0.2 0.7-2.6-3.8-5.4-10-3.6-7.8-5.8-11.5-7.3-12-1.4-0.5-2.3-0.3-2.5 0.6zm30 0.5c-1.8 1-3.8 3.5-4.8 6-1 2.3-1.7 6.6-1.7 9.7 0 3 0.6 6.9 1.3 8.7 0.8 1.8 2.5 4.3 3.8 5.5 1.7 1.6 3.7 2.3 6.9 2.4 2.4 0 5.9 0.8 7.7 1.7 2.7 1.4 3.4 1.4 4.5 0.3 1-1 0.9-1.6-0.7-2.7-1.1-0.8-2.4-1.6-2.8-1.7-0.5-0.1 0.1-2.3 1.2-4.7 1.3-2.9 2-6.7 2-10.3 0.1-3.2-0.5-7.2-1.3-9-0.7-1.8-2.6-4.3-4.2-5.5-1.6-1.3-4.3-2.3-5.9-2.3-1.7 0-4.4 0.9-6 1.9zm3.7 3.2c1.1-0.4 2.9-0.4 3.9 0.1 1 0.5 2.5 1.9 3.4 3.1 0.9 1.4 1.5 4.6 1.5 8.8-0.1 3.5-0.6 7.6-1.3 9-0.7 1.3-2.5 2.9-3.9 3.5-2 0.7-3.2 0.6-5.2-0.8-1.7-1.1-3-3.3-3.7-6-0.6-2.3-0.8-6-0.5-8.2 0.4-2.2 1.4-5.1 2.2-6.3 0.9-1.3 2.5-2.7 3.6-3.2zm42.7 11.5l0.1 16.5c16.3 0 17-0.2 17-2 0-1.8-0.8-2.1-6.3-2.3l-6.2-0.2v-10c10.1-0.5 10.5-0.7 10.5-3 0-2.5-0.1-2.5-5.5-1.8l-5.6 0.8 0.1-10.5c11.3 0 12-0.3 12-2 0-1.9-0.7-2-8.1-2h-8zm-25-3.5c0 8.4 0.5 13 1.5 15.5 0.8 1.9 2.8 4.2 4.3 5.1 2.3 1.4 3.3 1.5 6.5 0.5 2.1-0.6 4.5-2.3 5.5-3.8 1.4-2.3 1.7-5.2 1.8-16 0.1-12.4 0-13.3-1.7-13.3-1.7 0-1.9 0.9-1.9 10.7 0 5.9-0.4 12.2-1 14-0.6 2-1.8 3.5-3.2 3.9-1.3 0.3-3.2 0.1-4.3-0.4-1.1-0.6-2.3-2.5-2.7-4.4-0.5-1.8-0.8-8-0.8-13.6 0-9.6-0.1-10.2-2-10.2-1.9 0-2 0.6-2 12zm-684.7 12.7c-6.5 0.2-7.3 0.5-7.3 2.3 0 1.1 1.6 4.3 3.6 7.2 1.9 2.9 5.2 6.7 7.2 8.5 2.1 1.8 5.7 4.6 8.2 6.2 2.5 1.6 8.1 4.3 12.5 5.9 4.4 1.6 11.8 3.5 16.5 4.2 5.6 0.8 14.3 0.9 25.5 0.5 9.4-0.4 24.2-1.3 33-2.1 8.8-0.8 21.4-2.1 28-2.9 6.6-0.9 20.3-3 30.5-4.6 10.2-1.7 25.9-4.6 35-6.5 9.1-1.9 26.6-6.1 39-9.4 12.4-3.2 23.8-6.1 25.3-6.4 1.5-0.4 2.7-1.3 2.7-2.1 0-0.9-0.8-1.5-1.7-1.5-1 0-7.4 0.7-14.3 1.5-6.9 0.8-22.8 2.3-35.5 3.4-12.6 1.1-33.3 2.8-46 3.7-17 1.3-36.2 1.7-74.1 1.8l-51.1 0.1c-8.4-5.8-12.5-8.1-14.5-9-2.2-0.9-6.2-1.5-9.5-1.3-3.2 0.1-9 0.3-13 0.5zm1003.8 0.7q-0.1 1.6 5.2 3.1c2.9 0.8 15.1 3.9 27.2 7 12.1 3 30.6 7.3 41 9.4 10.5 2.1 26.4 5 35.5 6.4 9.1 1.4 22.4 3.3 29.5 4.1 7.2 0.9 21.5 2.2 31.8 3.1 10.3 0.8 23.8 1.5 30 1.5 6.2 0 15.2-0.7 20-1.5 4.8-0.9 11.3-2.5 14.5-3.7 3.1-1.2 8.1-3.7 11-5.5 2.9-1.8 7.1-5 9.4-7.1 2.3-2.1 5.7-6.1 7.5-9 1.8-2.9 3.3-5.9 3.3-6.7 0-1.3-2.3-1.7-12.2-2.2-6.8-0.3-13.6-0.3-15.3 0.1-1.6 0.4-6.1 2.8-10 5.4l-7 4.7c-79.9-0.2-109.8-0.7-120-1.4-9.9-0.7-25.9-1.9-35.5-2.7-9.6-0.8-25.8-2.4-36-3.5-10.2-1-21-2.2-24.2-2.5-4.7-0.4-5.7-0.3-5.7 1zm-738.7 11.1c-1 0.8-8 3.4-15.4 5.9-7.4 2.4-21.1 6.3-30.5 8.5-9.3 2.3-25.5 5.9-36 8-10.4 2.2-26.4 5.1-35.5 6.5-9.1 1.4-23.2 3.2-31.5 4-8.2 0.8-22.6 2-32 2.6-9.3 0.5-17.4 1.5-18 2q-1 1.1 1.5 3c1.4 1 5.6 3 9.3 4.4 3.7 1.4 10.9 3.1 16 3.8 7.2 0.9 12.6 0.9 24.7-0.1 8.5-0.7 23.8-2.6 34-4.3 10.2-1.6 26.6-5 36.5-7.5 9.9-2.5 26.7-7.4 37.3-10.9 10.6-3.6 25.6-9.4 33.5-13 7.8-3.6 14.7-6.9 15.2-7.4q1-1-0.2-2.3c-0.6-0.7-2.5-2-4.1-3-2.6-1.5-3.2-1.5-4.8-0.2zm725.4 1.3c-1.5 0.9-2.8 2.3-2.8 3.2 0 0.9 4 3.3 11.2 6.7 6.2 2.8 15.1 6.6 19.8 8.3 4.7 1.8 14.1 5.1 21 7.4 6.9 2.4 18.6 5.9 26 7.9 7.4 2 21.4 5.2 31 7.1 9.6 1.9 23.1 4.2 30 5 6.9 0.9 17.9 1.9 24.5 2.2 8.9 0.4 14.5 0.2 21.5-1 6.1-1.1 11.9-2.8 16-4.9 3.6-1.8 6.6-3.9 6.8-4.7 0.2-1.3-2.9-1.8-19-2.9-10.6-0.7-27.2-2.2-36.8-3.2-9.6-1.1-22.9-2.9-29.5-4-6.6-1.1-18.7-3.3-27-4.9-8.2-1.6-23.5-5-34-7.5-10.4-2.5-25.1-6.4-32.5-8.7-7.4-2.2-15.2-4.9-17.2-5.9-2.1-1.1-4.3-1.9-5-1.9-0.7 0.1-2.5 0.9-4 1.8zm-700.8 10.2c-3.6 2.3-11.4 6.7-17.5 9.7-6 3-17.1 7.9-24.5 10.8-7.4 2.9-18.7 6.9-25 8.9-6.3 2.1-19.2 5.7-28.7 8.1-9.5 2.5-24.8 5.8-34 7.5-9.2 1.6-16.9 3-17 3-0.2 0-0.3 0.6-0.3 1.5 0 0.8 1.7 2.2 3.8 3.1 2 0.9 8 2.5 13.2 3.6 7.8 1.6 12.2 1.9 24 1.5 12.1-0.4 16.5-1 26.5-3.7 6.6-1.7 16.1-4.5 21-6.2 5-1.7 15.1-5.7 22.5-8.8 7.4-3.2 16.2-7.1 19.5-8.8 3.3-1.7 9.6-5.2 14-7.8 4.4-2.6 10-6.1 12.5-7.7 2.5-1.7 5-3.6 5.5-4.4 0.7-0.9 0.4-3.2-1.1-7.6-1.9-5.6-2.5-6.3-5-6.5-2.1-0.2-4.9 0.9-9.4 3.8zm670.3 2.5c-2.9 3-5.3 5.8-5.3 6.2 0 0.4 1.5 1.9 3.3 3.3 1.8 1.3 5 3.6 7.2 5 2.2 1.4 8.5 5.1 14 8.1 5.5 3.1 17 8.6 25.5 12.3 8.5 3.7 20.9 8.5 27.5 10.7 6.6 2.2 16.5 5.2 22 6.5 7.3 1.9 13.8 2.7 24 3.1 8.9 0.3 16.6 0.1 21-0.7 3.9-0.7 9.9-2.2 13.4-3.4 3.5-1.2 6.7-2.7 7-3.4 0.4-0.7 0.4-1.5 0.1-1.7-0.3-0.3-5.7-1.4-12-2.5-6.3-1.1-14.9-2.7-19-3.5-4.1-0.9-15.1-3.6-24.5-6-9.3-2.4-24-6.9-32.5-9.9-8.5-3-19.8-7.1-25-9.2-5.2-2-14.2-6.1-20-9-5.8-2.8-12.7-6.6-15.5-8.3-2.7-1.8-5.2-3.2-5.5-3.2-0.3 0.1-2.8 2.5-5.7 5.6zm-11 22.2c-0.3 1-1.6 4.5-2.9 7.8-1.3 3.3-2.4 6.5-2.4 7.2 0 0.7 4.2 4 9.3 7.4 5.1 3.3 14.2 8.5 20.2 11.4 6.1 2.8 15.7 6.8 21.5 8.7 5.8 2 13 4.1 16 4.8 3.1 0.7 9.2 1 14 0.8 5.9-0.4 10-1.2 13.3-2.7 2.6-1.2 4.7-2.7 4.7-3.4 0.1-0.7-3.9-2.5-9.2-4.1-5.1-1.5-16.5-5.7-25.3-9.3-8.8-3.5-21.6-9.4-28.5-13-6.9-3.6-16.1-8.9-20.5-11.9-4.4-3-8.3-5.4-8.8-5.4-0.4 0-1 0.7-1.4 1.7zm-647.3 4.1c-3.6 2.5-12.8 7.9-20.5 11.8-7.7 3.9-18.9 9.2-25 11.8-6 2.5-16.6 6.5-23.4 8.8-6.8 2.3-12.6 4.8-12.8 5.5-0.1 0.7 1.6 2.3 4 3.5 3.7 2 5.7 2.3 15.7 2.3 10.9 0 12.2-0.3 25-4.5 7.4-2.4 19.4-7.4 26.5-11.1 7.2-3.6 16.1-8.7 19.8-11.3 3.7-2.5 6.7-5 6.7-5.4 0-0.4-1.3-4.2-3-8.5-2.2-5.6-3.5-7.7-4.7-7.7-1 0-4.7 2.2-8.3 4.8zm190.3 42.4c0.5 37.6 0.9 44.8 2.7 55.3 1.1 6.6 2.8 14.9 3.6 18.5 0.8 3.5 2.9 10.5 4.6 15.5 1.7 4.9 5.3 13.9 7.9 20 2.6 6 7.1 15.2 10 20.5 2.8 5.2 6.8 11.9 8.9 15 2.1 3 6.4 8.8 9.7 13 3.3 4.1 8.8 10.6 12.4 14.4 3.5 3.8 11.4 11.1 17.4 16.3 6.1 5.2 16.6 13.2 23.5 17.8 6.9 4.5 17.2 10.9 23 14 5.8 3.1 11.9 5.9 13.5 6.2 2.2 0.3 5-0.6 10-3.3 3.9-2 11.7-6.4 17.4-9.8 5.7-3.4 15.8-10.2 22.5-15.2 6.7-5 16.1-12.9 21-17.5 4.9-4.7 12.2-12.3 16-16.9 3.9-4.7 9.7-12.1 12.8-16.5 3.1-4.4 8.2-12.8 11.3-18.5 3.2-5.8 7.5-14.8 9.7-20 2.2-5.3 5.7-14.5 7.8-20.5 2.1-6.1 4.5-14.6 5.4-19 0.9-4.4 2.3-12.8 3.1-18.5 1.1-7.9 1.5-20.9 1.5-52.3v-41.7h-276.3zm6.5-37.3h263.2v23.8c0 13-0.4 32.7-1 43.7-0.5 11-1.6 24.3-2.5 29.5-0.8 5.2-2.6 13.6-3.9 18.5-1.3 5-4.5 14.4-7.1 21-2.6 6.6-7.1 16.7-10 22.5-2.9 5.8-7.9 14.6-11.2 19.5-3.2 5-9.3 13.1-13.4 18-4.2 5-11.4 12.6-16 16.9-4.6 4.3-13.8 11.9-20.4 16.9-6.6 4.9-16.5 11.6-22 14.9-5.5 3.2-13.2 7.5-24.2 13.3l-13.4-7.4c-7.3-4.1-17.2-10-21.9-13.1-4.6-3.1-11.8-8.4-16-11.7-4.1-3.3-11.5-9.7-16.4-14.4-4.9-4.6-12.6-13-17-18.6-4.4-5.6-11-14.8-14.5-20.5-3.6-5.6-8.7-15.2-11.4-21.3-2.7-6-6.5-15-8.3-20-1.9-4.9-4.5-13.5-5.8-19-1.4-5.5-3.2-14.7-4.2-20.5-1.2-8-1.7-20.2-2.1-51.2zm438.4 20.2c-0.5 0.7-1.9 3.5-3.1 6.3l-2.2 5c3.6 3.6 7.5 6.8 11.1 9.5 3.6 2.7 10.6 6.7 15.5 8.9 5.8 2.6 11.9 4.4 17 5.2 6 0.8 9.8 0.8 15 0 3.9-0.7 7.9-1.8 9-2.6 1.8-1.3 1.8-1.6 0.5-2.8-0.8-0.8-5.8-2.9-11-4.6-5.2-1.8-15.8-6.3-23.5-10.2-7.7-3.8-16.7-9-20-11.5-3.3-2.4-6.3-4.5-6.6-4.5-0.4 0.1-1.1 0.6-1.7 1.3zm-623.7 5.2c-4.4 2.9-12 7.4-17 9.9-4.9 2.5-14.6 6.7-21.5 9.2-6.9 2.5-12.9 5-13.5 5.6q-1 1 1 2.4c1.1 0.8 5.2 2 9 2.6 5.5 0.9 8.7 0.9 15-0.1 4.4-0.7 10.5-2.2 13.5-3.3 3-1.2 8-3.5 11-5.3 3-1.8 8.3-5.7 11.7-8.6 3.4-2.9 6.2-5.8 6.3-6.3 0-0.6-1-3.4-2.2-6.3-1.3-3-2.9-5.2-3.8-5.2-0.8 0-5.1 2.4-9.5 5.4zm19.2 21c-0.9 1.4-4.5 4.6-7.9 7.2-3.5 2.5-9.7 6.2-13.8 8.1-4.1 1.9-8.5 3.9-9.7 4.4-1.3 0.5-2.3 1.5-2.3 2.4 0 0.8 1.5 2.2 3.3 3.1 1.8 0.9 6.4 1.9 10.2 2.1 4.4 0.3 9.5-0.1 13.8-1.1 3.7-0.9 9.9-2.9 13.7-4.4 4.4-1.7 7-3.3 7-4.2 0-0.9-2.4-5.6-5.2-10.5-2.9-4.9-5.8-9-6.4-9.2-0.6-0.2-1.8 0.7-2.7 2.1zm587.2 7.1c-3 5.2-5.2 10.2-5.1 11 0.1 0.8 2.4 2.4 5 3.6 2.6 1.1 8.3 3 12.7 4.1 6.1 1.5 10.2 1.9 17.5 1.6 6.3-0.3 10.6-1 12.8-2.2 1.8-0.9 3.2-2.2 3.2-2.9 0-0.7-3-2.3-6.7-3.6-3.7-1.3-9.3-3.7-12.3-5.5-3-1.7-9-5.9-13.2-9.4-4.3-3.4-8-6.2-8.2-6.2-0.2 0-2.8 4.2-5.7 9.5zm-568.6 22.5c-0.4 0.5-3.5 2.4-6.8 4.1-3.3 1.7-8.9 4-12.5 5-3.6 1-7.5 1.9-8.7 1.9-1.4 0-2.3 0.6-2.3 1.5 0 1 1.5 1.7 4.8 2.1 2.6 0.3 8.1 0.4 12.2 0.2 5.7-0.3 8.8-1.1 12.8-3.1 2.9-1.5 5.9-2.7 6.7-2.7 0.8 0 1.7-0.5 2-1 0.3-0.6-0.7-2.9-2.2-5.1-1.5-2.2-3.3-4-4-4-0.6 0-1.5 0.5-2 1.1zm553.7 3.2c-1.1 1.8-2 3.7-2 4.3 0 0.5 2.1 1.9 4.7 3.1 2.7 1.2 6.8 2.7 9.3 3.3 2.5 0.5 7.9 1 12 1 4.1 0 8.5-0.2 9.8-0.5 1.2-0.2 2.2-1 2.2-1.7 0-0.7-2-1.5-5.2-2-2.9-0.4-8-1.6-11.3-2.8-3.3-1.1-8-3.4-10.5-5-2.5-1.6-5.1-2.9-5.7-2.9-0.7 0-2.2 1.4-3.3 3.2zm-1.7 21.4c-0.2 0.7-0.1 1.8 0.2 2.4 0.3 0.5 2.8 2.1 5.5 3.5 3.1 1.5 6.7 2.5 9.5 2.5 2.5 0 5.4-0.5 6.5-1 1.1-0.6 2-1.7 2-2.5 0-1.2-1.2-1.6-4.7-1.6-2.6 0-7.9-1-11.8-2.3-5.5-1.9-7-2.1-7.2-1zm-552.8 2.3c-1.1 0.5-4.8 1.2-8.2 1.7-4 0.5-6.3 1.3-6.3 2.1 0 0.7 1 1.5 2.3 1.7 1.2 0.3 3.9 0.5 6 0.5 2 0 5.5-0.8 7.7-1.9 2.2-1.1 3.9-2.6 3.7-3.3-0.2-0.7-1-1.3-1.8-1.4-0.7-0.2-2.3 0.1-3.4 0.6zm19.3 6.2c-1.9 3-4.7 6.4-6.3 7.7-1.7 1.2-5.9 3.2-9.5 4.2-3.6 1.1-7.3 2-8.2 2-1 0-1.8 0.6-1.8 1.5 0 0.8 1.7 2.2 3.8 3.1 3 1.3 5.8 1.5 14.2 1 5.8-0.3 12.8-1.2 15.5-1.9 3.8-1.1 5.6-1.2 7.3-0.3 1.3 0.6 2.6 2 2.9 3.1 0.3 1.1-0.3 3-1.4 4.5-1.1 1.3-3.7 3.5-5.9 4.7-2.1 1.2-7.1 2.9-11.1 3.7-5.1 1.1-7.3 2-7.3 3.1 0 0.8 0.9 1.9 2 2.5 1.1 0.5 3.7 1 5.8 0.9 2 0 6.4-0.7 9.7-1.6 4.7-1.2 6.5-1.3 8.3-0.5 1.2 0.6 2.5 2.4 2.8 3.9 0.4 1.7 0 3.6-1 5-0.9 1.2-3.2 2.9-5.1 3.8-1.9 0.8-4.6 1.5-6 1.5-1.8 0-2.4 0.4-2.2 1.7 0.1 1 1.9 2.2 4.7 3 2.7 0.8 6.3 1.1 9 0.7 2.5-0.3 6.5-1.5 9-2.5 2.5-1.1 5.5-3 6.8-4.4 1.2-1.4 2.8-2.5 3.5-2.5 0.7 0 1.8-0.7 2.5-1.5 1-1.3 0.1-2.8-5.6-9.8-3.8-4.5-12.4-15.7-19.1-24.7-6.8-9.1-12.6-16.7-13.1-16.9-0.4-0.1-2.3 2.1-4.2 5zm515.5-0.9c-1.1 1.2-3.8 4.8-5.9 8-2.2 3.1-4.1 6.4-4.2 7.2-0.1 1.1 0.7 1.6 2.6 1.5 1.5 0 5.4 0.9 8.7 2.1 4.4 1.4 8.6 2 15.3 2 5.9 0 10.5-0.6 12.7-1.5 1.9-0.9 3.5-2.2 3.5-3 0-1.1-1.3-1.7-4.2-2-2.4-0.3-7.2-2-10.7-3.8-4.1-2-8-5-10.5-8-2.3-2.6-4.3-4.7-4.7-4.7-0.3 0-1.5 1-2.6 2.2zm-25.1 32.7c-6.2 7.7-11 14.5-10.7 15.1 0.3 0.5 1.2 1 2 1 0.8 0 2.1 0.8 2.8 1.8 0.7 1.1 3 2.9 5.2 4 2.2 1.2 6.7 2.6 10 3.2 4.6 0.8 6.9 0.8 10-0.2 2.2-0.8 4-2 4-2.8 0-0.9-2-1.9-5.5-2.8-3-0.8-6.3-2.2-7.3-3.1-0.9-0.9-1.8-3-1.8-4.6 0-1.7 0.8-3.7 1.7-4.5 1.3-1.2 2.8-1.4 6.8-0.8 2.8 0.4 8 1 11.6 1.4 4.6 0.4 7.1 0.1 8.4-0.8 1.2-0.9 1.7-2 1.3-3.1-0.4-1-1.7-1.7-3.2-1.7-1.4 0-5.1-1-8.2-2.2-3.2-1.2-7.2-3.1-9-4.3-1.8-1.1-3.6-2.9-4-4-0.4-1.1-0.7-2.7-0.7-3.5-0.1-0.7-0.6-1.5-1.2-1.7-0.6-0.2-6.1 5.9-12.2 13.6zm-442.6 21.3c-0.2 0.7-0.7 2.6-1.2 4.3-0.7 2.1-2.5 3.9-6.4 6.2-3.2 2-5.5 4-5.5 5 0 1.2 1.2 2 4 2.6q4 0.9 10-0.3c4.6-1 6.6-2 8.3-4.2l2.2-2.8c-6.8-9.3-9.3-12-9.9-12-0.6 0-1.3 0.5-1.5 1.2zm417.4 7.9l-5.5 6.1c4.1 3.1 7.5 4 12 4.4 3.9 0.3 9.2 0.2 11.9-0.3 2.7-0.5 5.1-1.4 5.3-2.1 0.2-0.7-1.6-2.2-3.9-3.4-2.4-1.1-5.5-2.9-7-4-1.5-1-3.2-3-3.8-4.3-0.5-1.4-1.5-2.5-2.2-2.5-0.7 0-3.8 2.8-6.8 6.1zm-350.2 88.6c-8 7-14.7 13.3-14.7 14 0 0.7 2.3 3.7 5.2 6.6 2.9 3 6.3 5.8 7.7 6.1 1.4 0.4 3.5 0.5 4.8 0.2 1.2-0.4 7.1-5.6 13-11.7 5.9-6 11.5-11.2 12.5-11.5 0.9-0.2 1.7-1.2 1.7-2.2 0-1-3.1-4.6-6.8-8-3.7-3.4-7.1-6.2-7.7-6.2-0.5 0-7.6 5.8-15.7 12.7zm268.2-6.1c-3.7 3.7-6.9 6.9-6.9 7.3-0.1 0.3 2.4 2.4 5.5 4.6 3.2 2.2 8.7 7.3 12.3 11.3 3.6 4.1 7.9 8 9.4 8.8 1.5 0.7 3.5 1.4 4.5 1.4 0.9 0 3.7-1.7 6.2-3.9 2.5-2.1 5.4-5.4 6.5-7.4l2-3.5c-5.4-4.6-12.2-10.3-18.5-15.6-6.3-5.3-12.1-9.7-12.8-9.7-0.8 0-4.4 3.1-8.2 6.7zm-238 15.5c-1.4 0.6-6.4 4.9-11.2 9.7-8.2 8.1-8.7 8.9-8.7 12.9-0.1 3.5 0.4 4.7 2.9 6.8 1.8 1.4 4.3 2.5 6 2.5 1.7 0 4.1-0.5 5.5-1 1.4-0.6 6.2-4.5 10.8-8.8 4.5-4.3 9.6-8.6 11.2-9.7l2.9-2c-3.8-5.2-5.8-6.9-6.9-7.1-1.1-0.2-2.9-1.4-4-2.5-1.1-1.1-2.9-2-4-1.9-1.1 0-3.1 0.5-4.5 1.1zm224.5 0c-1.1 0.6-3.7 2.7-5.7 4.7-2.1 2-3.8 4.4-3.8 5.4 0 1 1 2.1 2.3 2.4 1.2 0.4 5.8 4.1 10.2 8.4 4.4 4.2 9.1 8.4 10.5 9.3 1.4 0.9 3.8 1.7 5.3 1.7 1.5 0 4-0.7 5.5-1.4 1.5-0.8 3.6-3.2 4.7-5.5l2-4c-11.6-11.9-17-16.9-19.5-18.8-2.5-1.9-5.6-3.4-7-3.3-1.4 0-3.4 0.5-4.5 1.1zm-19.9 17.9c-2.2 1.7-3.8 3.9-3.7 4.8 0.1 0.9 1.4 2.6 3 3.7 1.6 1.1 6.4 5 10.8 8.8 4.3 3.7 8.9 7 10.3 7.4 1.6 0.3 3.9-0.2 6-1.3 2.1-1.2 3.6-2.8 3.7-4 0.1-1.3-2.6-5-7.5-10.1-4.2-4.5-9.6-9.1-11.9-10.2-2.4-1.2-4.8-2.1-5.5-2.2-0.7 0-3 1.4-5.2 3.1zm-187.3-0.1c-1.8 1.1-7.1 5.9-11.8 10.6-4.7 4.6-8.5 9.1-8.5 10 0 0.8 1.4 2.1 3 3 1.7 0.8 3.9 1.5 5 1.5 1.1 0 3.5-0.8 5.3-1.7 1.8-0.9 6.7-5 11-9 4.2-4 8.2-7.3 8.7-7.3 0.6 0 1-0.8 1-1.8 0.1-1-1-2.7-2.2-4-1.3-1.2-3.6-2.4-5.3-2.7-2.1-0.4-4 0-6.2 1.4zm12.2 13.9c-2.7 1.6-6.9 5-9.2 7.5-2.4 2.6-4.3 5.3-4.3 6.2 0 0.8 2 2.4 4.5 3.5 3.6 1.5 5.2 1.8 7.8 1 1.8-0.5 6.1-3.5 9.7-6.7 3.6-3.1 6.7-6.2 6.8-6.8 0.2-0.6-1.3-2.5-3.2-4.3-2-1.8-4.4-3.2-5.3-3.2-1 0-4 1.3-6.8 2.8zm159.5 0.5c-1.9 1.8-3.3 3.7-3.2 4.2 0.1 0.5 1.9 2.6 4 4.6 2 2 5.5 4.8 7.7 6.3 2.6 1.7 5.4 2.6 7.8 2.6 2 0 5.1-0.9 6.7-2 1.7-1.1 3-2.8 3.1-3.8 0-1-2.5-4.1-5.5-7-3.1-2.9-7.2-5.9-9.1-6.7-1.9-0.9-4.5-1.5-5.8-1.5-1.3 0-3.8 1.4-5.7 3.3zm-197.6-255.3c0.3 35.6 0.6 41.9 2.5 52.5 1.1 6.6 3 15.3 4.2 19.5 1.1 4.1 4.1 12.6 6.6 19 2.5 6.3 6.4 15.1 8.6 19.5 2.2 4.4 6.4 11.8 9.5 16.5 3 4.6 7.6 11.2 10.1 14.5 2.5 3.3 8.2 9.7 12.6 14.3 4.4 4.6 12.1 11.8 17 16 5 4.1 14 10.8 20 14.7 6.1 4 16 9.9 22 13.1l11 5.7c16.3-8.4 26.4-14.4 33-18.8 6.7-4.4 16.1-11.5 21-15.7 5-4.2 12-10.7 15.6-14.5 3.6-3.8 9.2-10.2 12.5-14.3 3.3-4.2 8.6-11.8 11.9-17 3.2-5.3 7.7-13.6 10-18.5 2.3-5 5.9-13.5 8-19 2-5.5 4.8-14.1 6.1-19 1.3-5 3.1-13.8 4-19.5 1.2-7.8 1.7-20.6 2-49.3l0.4-38.7c-156.9 0-212.9-0.3-225.7-0.7l-23.2-0.7zm5.1-34.1h238l-0.7 37.8c-0.5 26.7-1.1 40.7-2.3 47.7-0.8 5.5-2.7 14.3-4.1 19.5-1.4 5.3-4.6 14.7-7 21-2.5 6.4-6.8 15.8-9.6 21-2.8 5.3-7.7 13.4-10.9 18-3.2 4.7-9.3 12.6-13.6 17.5-4.3 4.9-12.5 12.9-18.3 17.8-5.8 4.9-15.9 12.5-22.5 16.9-6.6 4.4-16.1 10-30 17.2l-10.5-5.5c-5.8-3-14.8-8.3-20-11.8-5.2-3.4-12.6-8.8-16.4-11.9-3.8-3.1-11.2-9.9-16.5-15.2-5.3-5.2-12.8-13.7-16.8-19-3.9-5.2-9.8-14.4-13.2-20.5-3.4-6-7.8-15-9.7-20-2-4.9-5-12.8-6.6-17.5-1.5-4.6-3.7-13.1-4.8-18.7-1.1-5.6-2.5-16.7-3-24.5-0.6-7.8-1.2-26.7-1.3-42zm151.4 2.8c0.1 0.4 1 1.3 2.1 1.9 1.3 0.8 2 2.4 2 4.3 0 2.3-0.6 3.2-2.5 4q-2.5 1-4.5 0c-1.1-0.6-2-2-2-3.3 0-2.2 0-2.2 1.5-0.2 0.8 1.1 1.5 1.5 1.5 1 0-0.6 1.2-0.9 2.5-0.8 2 0.2 2.5-0.2 2.5-2 0-1.7-0.2-1.9-1.2-1-0.6 0.7-1.7 1.3-2.2 1.3-0.6 0-0.4-0.5 0.4-1 1.2-0.8 1.1-1-0.7-1-1.3 0-2.6-0.7-2.9-1.6-0.6-1.3-0.9-1.2-2 0.7-0.8 1.2-1.7 2.4-2.1 2.6-0.4 0.2-1.1-0.6-1.4-1.7-0.5-1.8-0.9-2-2.7-1.1-1.4 0.7-2.4 0.8-2.7 0.1-0.3-0.6-1.5-1-2.7-1.1-1.3 0-2.8 0.6-3.5 1.3-0.7 0.7-1.6 3.1-1.9 5.3-0.6 3.4-0.4 4.2 1.5 5.2 1.7 1 2.3 1 2.8 0 0.4-0.6 0.2-1.3-0.5-1.5-0.6-0.1-1.2-1.1-1.2-2.2 0-1.6 0.7-2 3.3-2 3.2 0 3.2 0 2.5 3.5-0.6 2.7-0.4 3.7 0.8 4.2 1 0.5 1.9 0.2 2.5-0.7 0.5-0.8 0.6-2.2 0.4-3-0.3-0.8 0.2-2.2 1-3 1.4-1.3 1.6-1.3 1.6 0.2-0.1 1 1.2 2.7 2.7 3.8 1.5 1.1 3.8 2 5 2 1.3 0 3.4-1.1 4.8-2.5 1.4-1.4 2.4-3.7 2.4-5.3 0-1.5-0.5-3.4-1.2-4.3-0.7-0.9-2.3-1.9-3.7-2.2-1.3-0.3-2.3-0.2-2.2 0.1zm-71.8 1.1c0 0.6 0.4 1.3 0.9 1.6 0.6 0.3 1 1.8 1 3.5 0 2.3-0.6 3.2-2.5 4-1.4 0.5-3.3 0.7-4.2 0.3-1-0.4-2.1-1.1-2.5-1.7-0.4-0.6-0.8-1.7-0.8-2.4 0-0.8 0.5-0.8 1.5 0.3 0.8 0.8 2.6 1.5 4 1.5 1.4 0 2.7-0.7 3-1.5 0.3-0.8 0.1-2.2-0.5-3-0.7-1-2.4-1.4-5.3-1.3-4.2 0.3-4.3 0.4-4.5 4-0.1 2.6 0.4 4.4 1.8 5.8 1.1 1.1 2.9 2 4 2 1.1 0 3.2-0.6 4.5-1.3 1.4-0.6 3-2.3 3.6-3.7 0.8-1.9 0.8-3.2-0.2-5.4-0.8-1.6-1.9-3.1-2.5-3.4-0.6-0.2-1.2 0.1-1.3 0.7zm-52.5 0.8c-0.4 0.5-1.4 2.3-2.2 4-1 2.4-1.1 3.9-0.4 5.3 0.6 1.1 2 2.2 3.3 2.4 1.2 0.3 3.7 0.7 5.5 1 2.3 0.4 3.4 0.2 3.7-0.9 0.3-0.8 0.3-2 0-2.5-0.3-0.6 0.1-1.7 0.8-2.7 1.1-1.4 1.3-1.3 1.8 0.8 0.3 1.3 1.6 3 3 3.7 1.4 0.7 3.9 1 5.9 0.7 1.9-0.4 4.6-0.6 6-0.6 1.4 0 4.1 0.2 6 0.6 2.4 0.4 4.2 0.1 5.8-0.9 1.4-1 2.2-2.6 2.2-4.4 0-1.5-0.3-3.2-0.7-3.8-0.5-0.7-3-1.6-5.8-2.2-4.4-0.8-5.2-0.7-6.7 0.9-1 1.1-1.9 1.4-2 0.9-0.2-0.6-2.8-1.4-6-1.8-5.4-0.7-5.7-0.6-6.6 1.8l-1 2.5c-2-5.2-2.5-5.4-4.4-4.4-1.7 0.8-2.6 0.8-3.3 0-0.5-0.6-1.7-1.1-2.6-1.1-0.8 0-1.9 0.3-2.3 0.7zm30.2 5c0.9-0.1 3.4-0.1 5.5 0 2.4 0.2 3.6 0.7 3.4 1.5-0.2 0.8-2.2 1.3-5.2 1.3-3 0-4.9-0.5-5.1-1.3-0.2-0.6 0.4-1.3 1.4-1.5zm-29.8 1.8c0-1 1-1.5 3.3-1.5 2.9 0 3.2 0.3 2.7 2.5-0.3 1.3-1.2 2.6-2 2.8-0.8 0.2-2-0.2-2.7-1-0.7-0.7-1.3-2-1.3-2.8zm14.6-0.5c0.3-0.6 2.7-1 5.5-1 3.4 0 4.8 0.4 4.6 1.2-0.2 0.7-2.1 1.4-4.3 1.6-2.1 0.2-4.4 0-5.1-0.3-0.7-0.3-1-1-0.7-1.5zm43.1-6.3c-0.4 0.5-0.1 1.4 0.6 2.2 0.8 0.9 1 2.6 0.5 5.2-0.4 2.1-0.4 3.9 0 3.9 0.5 0 1.4-0.6 2-1.3 0.7-0.6 1.2-2.4 1.2-4 0-1.5-0.4-3.6-1-4.7-0.5-1.1-1.4-2-1.8-2-0.5 0-1.1 0.3-1.5 0.7zm8.3 0.6c-1.9 0.9-2.5 2.1-2.7 5-0.2 2.9 0.2 4 2 5.2 1.2 0.8 3 1.5 3.9 1.5 0.9 0 2.4-0.7 3.2-1.5 0.9-0.8 1.6-2.6 1.6-4 0-1.4-0.7-2.7-1.5-3-0.8-0.3-1.3-1-1-1.5 0.3-0.6 0.1-1-0.5-1-0.5 0-0.8-0.5-0.7-1 0.2-0.6-0.2-1-0.7-1-0.6 0-2.2 0.6-3.6 1.3zm-0.5 2.4c0.5-0.4 1.3-0.7 1.9-0.7 0.7 0 0.7 0.3-0.1 0.8-0.6 0.4-1 1.6-0.9 2.7 0.2 1.1 1 2.2 1.7 2.4 0.8 0.2 2-0.5 2.7-1.5 1.1-1.7 1.3-1.8 1.2-0.2 0 1-0.9 2-2 2.3-1.1 0.3-2.7-0.1-3.5-0.8-0.9-0.6-1.6-1.9-1.7-2.8-0.1-0.9 0.3-1.9 0.7-2.2zm74.9-2.6c-1 0.4-3.3 0.8-5.1 0.8-3.1 0.1-3.3 0.3-3.1 3.8 0.1 2.1 0.9 4.6 1.7 5.6 1.4 1.6 2.4 1.7 7.6 1l6-0.8c0.4-6.2 0.1-8.5-0.3-9-0.5-0.6-1.8-1.3-2.9-1.6-1.1-0.3-2.9-0.2-3.9 0.2zm2.1 3.6c-1-0.9-1.4-1.7-0.9-1.7 0.5 0 1.7 0.8 2.7 1.8 1 0.9 1.8 2.1 1.8 2.7 0 0.5-0.7 1.7-1.6 2.5-1.5 1.4-1.6 1.3-1-1 0.5-1.8 0.2-3-1-4.3zm-6.5 1.5c0.8-0.7 2.1-1.1 3-1 0.8 0.2 1.5 1.2 1.5 2.3 0 1.4-0.7 2.1-2.7 2.2-1.7 0.2-2.9-0.2-3-1-0.1-0.7 0.5-1.9 1.2-2.5zm15.3-5.4c-0.7 0.4-1.5 2.5-1.9 4.7-0.6 3.5-0.3 4.2 1.7 5.8 1.3 0.9 3.8 1.7 5.4 1.7 1.7 0 4.3-0.9 5.8-2 2.3-1.7 2.8-1.8 3.2-0.5 0.3 0.8 1.2 1.5 2 1.5 0.8 0 2.1 0.8 2.8 1.9 0.7 1 1.9 2 2.7 2.1 0.8 0.1 2.1 0.2 2.8 0.1 0.7-0.1 1.2-0.6 1.2-1.1 0-0.6-0.9-1-2-1-1.5 0-1.9-0.5-1.5-2 0.4-1.7 0-2-2.5-2-2.3 0-3-0.5-3-2 0-1.3 1.1-2.5 3-3.3 1.7-0.6 3-1.4 3-1.7 0-0.3-0.5-0.6-1.2-0.7-0.7-0.1-2.3-0.4-3.5-0.7-1.9-0.5-2.5 0-3.6 2.6-1.3 3.3-1.3 3.3-1.9 0.8-0.5-1.8-1.6-2.7-4-3.2-1.8-0.4-4.2-1-5.3-1.3-1.1-0.3-2.5-0.2-3.2 0.3zm0.6 5.2c0.8-0.4 3.2-0.5 5.5-0.3 2.3 0.3 4.2 0.7 4.4 0.9 0.1 0.2 0 0.8-0.3 1.4-0.3 0.5-2.5 1-5 1-2.5 0-4.8-0.5-5.2-1.1-0.4-0.6-0.2-1.5 0.6-1.9zm-76-1c-1.3 3.6-1.2 4.1 0.6 6q2 2.1 5.8 2c2.5 0 3.6 0.4 3.3 1.2-0.2 0.7 0.3 1.3 1 1.3 0.8 0 1.4-0.7 1.5-1.5 0-0.8-0.6-2-1.3-2.7-0.7-0.6-2.9-1.3-4.8-1.5-2.4-0.2-3.5-0.9-3.7-2.1-0.2-1.3 0.4-1.7 2.5-1.7 1.5 0.1 3.3-0.6 4-1.5 1-1.2 0.9-1.6-0.3-2-0.8-0.3-2-0.2-2.7 0.2q-1.3 0.8-0.5-0.5c0.5-0.8 0-1.2-1.7-1.2-1.8 0-2.6 0.8-3.7 4zm103.1 1.5c0 1.5 0.8 2.9 2 3.5 1.6 0.8 2.5 0.5 4.3-0.9 1.8-1.6 2-2.2 0.9-3.1-1-0.8-1.5-0.9-1.8-0.1-0.2 0.6-1.1 1.1-1.9 1.1-0.8 0-1.3-0.5-1-1 0.3-0.6 1.1-0.7 1.8-0.3q1.2 0.8 0.5-0.5c-0.4-0.6-1.7-1.2-2.8-1.2-1.4 0-2 0.7-2 2.5zm-182.7 40.7c0.4 22 0.8 30 2.2 35.8 0.9 4.1 2.8 11.3 4.2 16 1.3 4.7 3.4 11 4.6 14l2.2 5.5 28.5 0.5c0.2-7.4 0.2-9.8 0.1-10.3 0-0.4 24-0.7 53.4-0.7 29.4 0 53.5 0.3 53.4 0.7-0.1 0.5-0.1 2.9 0 5.5l0.1 4.8 28.5-0.5c4.4-11.6 6.8-19.1 8.1-24 1.4-5 3.1-13.1 3.9-18 1-6.2 1.5-16.6 1.5-33.3v-24.2h-191.2zm39.5-23.5c19.7-0.1 45-0.2 56.3-0.1 11.2 0.1 36.3 0.2 91 0.3l-0.1 16.3c0 8.9-0.4 20.7-0.9 26.2-0.5 5.5-1.8 14.1-3 19-1.1 5-3.4 13.4-8 28.5h-22v-11h-17v-6h-81v6h-17v11h-22l-3.5-10.7c-1.8-5.9-4.4-15.7-5.6-21.8-1.8-8.9-2.3-15.2-2.9-57.5zm20 88c-0.9 1-2.1 3-2.7 4.5-0.6 1.6-1.1 7.1-1.1 12.3 0 7.1-0.4 9.9-1.5 11-0.8 0.8-1.3 2.2-1 3 0.3 0.8 1 1.5 1.5 1.5 0.6 0 0.8 0.7 0.5 1.5-0.3 0.8-0.1 2.5 0.4 3.7 0.7 1.6 0.6 2.7-0.2 3.5-0.6 0.7-0.7 1.3-0.1 1.3 0.5 0 0.7 1.2 0.4 2.6-0.3 1.5-0.8 2.8-1.2 3-0.5 0.2-0.1 1.5 0.7 2.9 0.8 1.4 2 2.5 2.5 2.5 0.6 0 1.5-1.1 2-2.5 0.6-1.4 0.7-3.1 0.3-3.8-0.4-0.6-0.7-2-0.8-3 0-1 0.6-2.4 1.3-3 1-1 1.3-0.7 1.3 1-0.1 1.4 0.8 2.7 2.2 3.3 1.2 0.5 3 1.6 3.9 2.2 1.3 1.1 1.9 1 3.2-0.2 1.3-1.2 1.4-1.8 0.4-3-0.7-0.8 0-0.5 1.5 0.7 2.3 1.9 2.8 2.1 3.5 0.8 0.5-1 1 0.2 1.7 3.6 0.6 2.7 0.8 5.3 0.5 5.7-0.3 0.5-2.1 1.3-4 1.8-2 0.5-3.5 1.6-3.5 2.4 0 1.1 1.6 1.6 6.3 1.7 4.4 0.2 6.3-0.1 6.4-1 0-0.6 0.2-1.8 0.2-2.4 0.1-0.7 1-1.9 2.1-2.8 1.8-1.4 1.9-1.6 0.4-2.8-1.5-1.1-1.5-1.4 0-4.3 0.9-1.7 2.1-2.9 2.6-2.7 0.6 0.2 3.4-0.5 6.3-1.7 2.8-1.1 5.9-2 6.7-2 0.8 0 1.5 0.9 1.5 2 0 1.1 0.9 3.2 2 4.7 1.2 1.6 2.1 4.3 2 6 0 2.7-0.4 3.3-2.2 3.5-1.3 0.2-2.3 1-2.3 1.8 0 1.2 1.9 1.5 10.5 1.6 5.8 0 10.8-0.1 11.3-0.3 0.4-0.2 0.3-1.2-0.3-2.3-0.7-1.5-0.6-2.5 0.5-4 1.3-1.8 1.3-2.3-0.2-4.8-1.5-2.5-1.5-3.1 0.1-8.7 1.2-3.9 1.6-7.4 1.2-10-0.4-2.2-0.6-4.7-0.7-5.5 0-0.8 0.3-3.1 0.6-5 0.4-2.3 0.2-4-0.7-4.8-0.9-0.9-4.1-1.3-9.5-1.3-4.6 0.1-8.5-0.4-8.8-0.9-0.3-0.6-1.3-0.9-2.2-0.8q-1.8 0.3-1.5-1.5c0.1-1.2-0.4-1.6-2-1.5-1.5 0.2-2.3-0.2-2.3-1.2 0-0.8 0.9-1.7 2-1.9 1.1-0.2 2.3-0.8 2.7-1.5 0.5-0.8 1.1-0.7 2.3 0.4 0.9 0.8 1.6 2.1 1.6 2.7-0.1 0.7 0.6 1.3 1.4 1.3 0.9 0 1.5-1 1.6-2.3 0-1.4 0.3-1.6 0.6-0.7 0.2 0.8 0.7 2.1 0.9 2.7 0.3 0.9 0.9 1 1.9 0.3q1.5-1 2 0c0.3 0.5 1.2 0.8 2 0.5 0.8-0.3 2.7 0.4 4.3 1.5 1.5 1.2 3.5 1.8 4.5 1.5 0.9-0.3 1.7-1.4 1.7-2.5 0-1.1-0.7-2-1.5-2-0.8 0-1.5 0.6-1.4 1.2 0 0.7-1.4 0.2-3.3-1.3-1.8-1.4-5.2-3.6-7.5-4.8-2.4-1.1-6.1-2.1-8.3-2.1-2.2 0-5.3 0.7-7 1.5-1.6 0.8-3.2 2.1-3.4 2.7-0.3 0.9-0.7 1-1.3 0.2-0.4-0.6-1.8-1.6-3-2.3-1.5-0.7-2.5-0.8-2.8-0.1q-0.5 1-2 0c-0.9-0.6-1.9-0.7-2.7-0.1-0.7 0.6-2.3 0.7-3.6 0.3-1.5-0.5-2.6-0.2-3.5 0.9-0.6 0.9-2.4 1.9-3.9 2.3-1.9 0.4-3.2 0.1-4-0.9-1.1-1.2-1.5-1.3-2.6-0.3-0.7 0.7-1.3 1.6-1.2 2 0 0.5 0.9 2.1 2 3.8 1.3 1.9 2.8 3 4.3 3 1.2-0.1 3 0.7 3.9 1.7 1 1 1.8 2.2 1.8 2.8 0 0.5-0.6 0.1-1.4-1l-1.5-2c-0.1 3.2-0.4 3.5-0.9 2.9-0.4-0.6-1.6-1.6-2.7-2.2-1.6-0.9-2.4-0.8-4 0.8-1.1 1.1-1.6 2.3-1.1 2.7 0.4 0.5 1.5 0.9 2.5 1.1 0.9 0.1 2.4 0.3 3.4 0.5 0.9 0.1 1.7 0.5 1.7 0.9 0 0.5 0.8 0.5 1.8 0.2 1.3-0.5 1.5-0.2 1 1q-0.8 1.6 1.2 3.1c1.5 1.1 2.5 1.2 4 0.5q2-1 2.5 0c0.3 0.5 0.2 0.9-0.2 0.8-0.5-0.1-1.8 0.1-3 0.5-1.7 0.5-2.8 0.1-4.3-1.6-1.6-1.6-2.5-2-3.7-1.2-0.8 0.5-2.4 2.6-3.5 4.5-1 1.9-1.8 4.7-1.6 6.2l0.3 2.7c-5.8-5.8-6.2-6.7-5.2-7.7 1-1 0.8-1.7-0.8-3.3-1.9-2-1.9-2.7-0.9-15.2 0.5-7.3 0.8-13.6 0.4-14-0.3-0.4-1.3 0-2.2 1zm35.5 12.6c0.2-4.6 0.3-4.9 1.4-3 0.7 1.2 1.3 3.2 1.3 4.4 0 1.3 0.5 2.5 1 2.8 0.6 0.3 1.2 0 1.5-0.5 0.3-0.7 1.4-0.6 3.3 0.1 1.5 0.6 6.3 0.9 10.6 0.7 6.6-0.3 8.1 0 9 1.4 0.9 1.4 0.7 2-0.9 3.2-1.3 1-4.8 1.6-10 1.8-4.4 0.1-9.7 0.1-11.7 0-2.1-0.1-3.8 0.2-3.8 0.8 0 0.5-0.6 1.7-1.4 2.5-0.8 0.8-1.7 1.5-2 1.5-0.3 0-0.3-0.6 0.2-1.3 0.4-0.6 0.8-3 1-5.2 0.2-2.2 0.4-6.3 0.5-9.2zm-11.7 6.4c0.3-0.4 0.6-0.7 0.8-0.7 0.2 0 0.1 0.7-0.3 1.7-0.5 1.3-0.2 1.5 1.7 1 1.2-0.4 2.4-0.3 2.7 0.3 0.3 0.5 1 0.8 1.5 0.5 0.6-0.3 1.3 0.1 1.8 0.7q0.7 1.3-0.5 0.5c-0.8-0.4-2 0.1-3 1.3-1 1.1-2.1 2-2.5 2-0.5 0-0.6-0.5-0.3-1 0.3-0.6 0.1-1-0.5-1-0.5 0-1.2-1-1.4-2.3-0.3-1.2-0.3-2.5 0-3zm28 26.4c-1.1-1.4 0.1-0.7 2.8 1.4 4 3.3 4.8 4.4 4.7 7.2-0.1 1.8-0.5 3.3-1.1 3.3-0.5 0-1.7 0.2-2.5 0.5q-1.5 0.5-1.5-1.5c0-1.1 0.5-2.2 1-2.5 0.6-0.3 1-1.2 1-2 0-0.8-0.7-1.5-1.5-1.5-0.8 0-1.3-0.6-1.1-1.3 0.2-0.6-0.6-2.3-1.8-3.6zm-77.6 19.4c0 0.8 6.2 7.7 13.8 15.3 7.8 7.9 16.9 16 21.2 18.9 4.1 2.8 11.7 7.3 16.8 10.2l9.2 5.1c10.5-5.2 18.2-9.9 24-13.8 5.8-3.9 13.5-9.7 17.1-12.9 3.7-3.2 9.9-9.4 13.8-13.8 3.9-4.4 7.1-8.6 7.1-9.3 0-0.9-13-1.2-61.5-1.2-54 0-61.5 0.2-61.5 1.5zm8.8 3.5h22.1c13.7 0 22.3 0.4 22.6 1 0.3 0.5-0.3 1.4-1.2 1.9-1.4 0.7-1.8 2.2-1.8 6.3 0 4.8-0.2 5.3-2.2 5.5-1.3 0.2-2.3-0.2-2.3-0.7 0-0.6 0.5-0.9 1.1-0.8 0.7 0.2 1.4-0.4 1.7-1.2q0.6-1.5-0.6-0.8c-0.7 0.5-1.2 0.3-1.2-0.2 0-0.6 0.5-1 1-1 0.6 0 0.8-0.7 0.5-1.5-0.3-0.8-0.9-1.5-1.5-1.5-0.5 0-0.9 0.3-0.9 0.7 0.1 0.5 0.1 1.4 0 2 0 0.7-0.4 1.1-0.8 0.9-0.5-0.2-1.3 0.1-1.8 0.7-0.6 0.7-1.3 1.4-1.5 1.7-0.2 0.3 0.2 1.5 0.8 2.7 0.8 1.4 0.8 2.3 0.2 2.3-0.5 0-1.2 0.7-1.5 1.5-0.3 0.8 0.2 2.5 1 3.7q1.5 2.3 1.5 0.8c0-0.8 0.2-1.2 0.5-0.8 0.3 0.5 0.2 1.4-0.2 2-0.4 0.7-0.9 1.9-1 2.5-0.2 0.7 0.6 1.3 1.7 1.3 1.1 0 2 0.6 2 1.2 0 0.7 0.8 2.2 1.8 3.3 0.9 1.1 0.4 0.9-1.1-0.5-1.6-1.4-3.4-2.5-4-2.6-0.7 0-2.8-1.1-4.7-2.4-1.9-1.3-7.3-5.7-12-9.7-4.7-4-10.7-9.8-13.4-12.8zm60.8 0.7c0.4-0.4 10.7-0.7 44.8-0.7l-9.4 9.5c-5.2 5.3-12.6 12-16.4 15-3.9 3-7.8 5.5-8.8 5.5-0.9 0-1.9 0.4-2.2 1-0.3 0.5-1.9 1.9-3.5 3-2.3 1.5-2.9 1.6-2.5 0.5 0.3-0.8 1-1.5 1.7-1.5 0.7-0.1 2.1-0.8 3.1-1.8 0.9-0.9 1.7-2.1 1.7-2.5 0-0.4-0.4-0.7-1-0.7-0.5 0-1.6 0.7-2.5 1.5-1.4 1.3-1.5 1.3-1.5-0.5 0-1.1 0.4-1.8 1-1.5 0.5 0.3 2.3-0.1 3.8-0.8 2.3-0.9 2.7-1.7 2.2-3.2-0.6-2-0.7-2-2.1 0.2-0.8 1.3-1.7 1.9-2.1 1.5-0.4-0.4 0.3-1.5 1.5-2.4 1.9-1.5 2-1.9 0.7-3.3-1.4-1.4-1.3-2 2-9l-3.3-1.2c-1.8-0.6-2.5-1.2-1.7-1.2 1.2 0 1.2-0.3 0.2-1.3-0.6-0.7-0.9-1.6-0.5-2.1 0.4-0.4-0.7-0.5-2.5-0.2-2.6 0.4-3.3 0.1-3.4-1.3-0.1-1.1 0.2-2.2 0.7-2.5zm-7.5 10.8c1.9-1.4 3.7-2.5 4-2.5 0.2 0-0.6 0.8-1.8 1.8-1.3 0.9-2 2-1.5 2.5 0.4 0.4 2.4 0.8 4.3 0.8 1.9 0.1 2.7 0.3 1.7 0.5-0.9 0.2-1.7 0.7-1.8 1.1 0 0.4 1.6 2.8 3.5 5.3 1.9 2.5 3.2 4.7 2.9 5-0.3 0.3-0.8 0-0.9-0.5-0.2-0.6-1.1-1.9-1.9-3-1.6-2-1.6-2-3.3 0.3-0.9 1.2-2.2 2.2-2.7 2.2-0.6 0-2.4 0.9-4 2.2-2.4 1.7-2.7 1.8-1.5 0.3 1.3-1.6 1.3-1.9 0-2.4-0.8-0.3-1.9-1-2.3-1.6-0.4-0.5-1.9-2.6-3.4-4.5-1.6-1.9-2-2.8-1-2 1.6 1.3 1.9 1.3 2.7 0 0.5-0.8 1-2.9 1-4.5 0.1-2.8 0.2-2.9 1-0.8 0.6 1.3 1.1 2.3 1.2 2.3 0.2 0 1.8-1.1 3.8-2.5zm-8.7 18.4c1.7-0.4 3.2-0.7 3.3-0.8 0.1-0.1 0 0.6-0.3 1.4-0.2 0.8 0.2 2.2 0.9 3.2 1.1 1.4 1 1.5-0.2 0.8-0.8-0.4-2.3-1.5-3.3-2.4-1.5-1.4-1.8-1.4-1.8-0.1 0 1.3-0.1 1.3-0.9 0-0.8-1.2-0.3-1.6 2.3-2.1zm11.8-0.2c0.1-0.7 0.3-0.3 0.6 0.8 0.3 1.5 1.1 1.9 5.8 1.5l-2.8 1c-2.2 0.8-2.6 1.4-2 3.2 0.5 1.7 0.4 2.1-0.5 1.5-0.7-0.4-1.2-1.4-1.2-2.2 0-1.2-0.5-1.3-2.3-0.5-2.1 1-2 0.9 0.3-1.1 1.4-1.2 2.4-2.3 2.2-2.5-0.1-0.2-0.2-1-0.1-1.7zm-20.6-182.1c2.2 1.9 4.8 3.4 5.7 3.4 1 0 2-0.5 2.3-1 0.3-0.6-0.9-2.1-2.5-3.5-1.9-1.6-4.2-2.5-6.3-2.5l-3.2 0.1zm28.6-1.1c-1.7 1.4-2.9 3-2.6 3.5 0.3 0.6 1.4 1 2.5 1 1.1 0 3.7-1.6 5.7-3.5l3.8-3.4c-5.1-0.1-7.6 0.9-9.4 2.4zm-48.1 1c0 1 3 2.4 9.7 4.4 7.6 2.3 10.1 2.7 11.1 1.8 0.7-0.7 0.9-1.5 0.5-1.9-0.5-0.4-4.2-1.9-8.3-3.3-4.1-1.4-8.8-2.5-10.3-2.5-1.7 0-2.7 0.5-2.7 1.5zm58.6 1.1c-5.3 1.7-7.9 3-7.8 3.9 0.1 0.8 0.6 1.7 1.2 2 0.5 0.3 5.5-1 11-2.7 5.6-1.9 10-3.8 10-4.5 0-0.8-1.3-1.3-3.3-1.3-1.8 0.1-6.8 1.2-11.1 2.6zm-23.8 0.1c0.1 0.7-1.3 1.9-3.1 2.7-1.8 0.8-4 2.2-5 3.3-1 1-1.7 2.7-1.5 3.8 0.2 1.1 1.7 2.9 3.5 4 2.4 1.5 3 2.5 2.6 4-0.3 1.1-0.9 2.2-1.3 2.5-0.4 0.3-1.1 1.4-1.4 2.5-0.4 1.1-2.6 3.4-4.9 5-2.7 1.9-5.2 5-7 8.5-1.5 3-2.7 6.7-2.7 8.3v2.7h45.5c-0.9-5.8-2.4-9.6-3.8-12.2-1.5-2.7-4.5-6-6.7-7.5-2.2-1.6-4.3-3.7-4.6-4.8-0.4-1.1-1-2.2-1.4-2.5-0.4-0.3-1-1.4-1.4-2.5-0.5-1.5 0-2.3 1.9-3.2 1.3-0.7 3-2.4 3.7-3.8 1.1-2.2 1-2.8-1.2-5-1.4-1.4-3.8-2.7-5.3-3-1.7-0.3-2.8-1.2-2.9-2.3-0.1-1-0.8-1.9-1.7-1.9-0.8 0-1.4 0.6-1.3 1.4zm-5.2 6.4c1-0.6 2.4-1.1 2.9-1.1 0.7 0 0.9 1.3 0.7 3.3-0.3 1.7-0.6 3.5-0.8 4-0.3 0.4-1.3 0.1-2.4-0.5-1.1-0.7-2.1-2.1-2.2-3-0.1-0.9 0.7-2.2 1.8-2.7zm9.4 0.4c0-0.8 0.4-1.5 1-1.5 0.5 0 1.9 0.5 3 1 1.1 0.6 2 1.6 2 2.3 0 0.6-0.9 2.1-4 5.2l-1-2.7c-0.6-1.6-1-3.5-1-4.3zm-65.1 1.4c-1.4 1.1-2 2.3-1.6 2.8 0.5 0.4 11 0.8 23.5 0.8 21.9 0 22.7-0.1 23-2 0.2-1.1-0.3-2.3-1-2.7-0.7-0.4-10.4-0.8-21.4-0.8-18.4 0-20.4 0.2-22.5 1.9zm81.3-1.1c-0.8 0.4-1.2 1.6-1 2.7 0.3 1.9 1.1 2 21.8 2 11.8-0.1 22.4-0.4 23.5-0.9 1.9-0.7 1.9-0.8-0.5-2.7-2.3-1.8-4.1-2-22.5-1.9-11 0-20.6 0.4-21.3 0.8zm-60.2 13.2c-11.8 3.8-22.8 7.3-24.3 7.9-1.5 0.6-2.7 1.6-2.7 2.1 0 0.6 0.5 1.3 1.2 1.6 0.7 0.3 12.8-3.1 26.8-7.6 14-4.5 25.6-8.3 25.7-8.6 0.2-0.2 0.1-0.8-0.2-1.4-0.3-0.5-1.5-1-2.8-0.9-1.2 0-11.9 3.1-23.7 6.9zm56.5-6c-0.3 0.6-0.2 1.3 0.1 1.8 0.3 0.4 11.9 4.2 25.8 8.5 13.8 4.3 25.6 7.5 26.3 7.2 0.7-0.3 1.3-1.1 1.3-1.7 0-0.8-9.8-4.4-24.8-9.1-13.6-4.2-25.5-7.7-26.4-7.7-1 0-2 0.5-2.3 1zm-40.7 11.8c-6.9 5.3-14.5 11.1-16.7 12.7-2.2 1.7-3.9 3.5-3.8 4 0.2 0.6 1.2 1.1 2.3 1.3 1.2 0.2 8.2-4.5 19.1-12.7 9.5-7.2 17.1-13.5 16.8-14.1-0.3-0.5-1.5-1-2.8-1-1.3 0-7.7 4.3-14.9 9.8zm34.2-8.8c0 0.6 1.2 2 2.7 3.3 1.4 1.2 9 7.1 16.7 13 8.8 6.8 14.8 10.7 16 10.5 1.1-0.2 2-0.7 2.2-1.3 0.2-0.5-7.3-6.7-16.7-13.7-9.3-7.1-17.8-12.8-18.9-12.8-1.1 0-2 0.5-2 1zm-36.9 34.3l0.4 2.2h56l0.5-4.5h-57.2zm-3 6c0.3 1.9 1 2.3 4.1 2.3 2.1 0 16.1-0.2 31.2-0.3 26.8-0.2 27.5-0.3 27.5-2.2 0-2-0.6-2-31.5-2h-31.6zm-2.7 4.4c-0.4 0.3-0.7 1.5-0.6 2.5 0.1 1.7 1.9 1.8 34.6 1.8h34.5l-0.5-4.5c-52-0.4-67.5-0.2-68 0.2z"/></svg>